<?xml version="1.0" encoding="UTF-8"?>
<svg enable-background="new 0 0 2048 2185" version="1.1" viewBox="0 0 2048 2185" xmlns="http://www.w3.org/2000/svg">
 <path d="m901.25 43.63c11.62-1.79 23.43-1.29 35.15-1.38 35.87 0.97 72.35 8.06 103.81 25.93 21.49 11.87 40.19 28.84 53.64 49.41 12.56 19.08 23.46 39.18 35.15 58.79 6.6801 11.39 13.09 22.94 19.6 34.43 1.97 3.74 4.38 7.27 5.88 11.24-13.87-20.59-27.43-41.39-40.71-62.37-11.6-17.64-21.96-36.22-35.6-52.42-19.07-22.17-44.75-37.91-72.09-47.78-33.5-12.1-69.42-15.59-104.83-15.85z"/>
 <path d="m1014.3 42.46c29.15-0.29 56.53 11.94 81.21 26.38 18.29 10.83 36.85 21.36 53.88 34.14 1.17 0.81 2.45 1.49 3.72 2.18 20.46 5.78 42.37 7.55 61.26 18 16.17 8.78 30.47 20.57 44.05 32.88 28.5 26.25 52.14 58.2 66.67 94.25 16.16 39.95 22.09 83.06 26.16 125.69 0.4 4.73 1.17 9.48 0.76 14.24-7.26-46.16-14.16-93.06-32.26-136.47-14.14-34.45-36.46-65.1-62.92-91.11-13.43-12.67-27.12-25.32-42.93-34.99-18.53-11.45-40.48-14.55-60.69-21.81 14.68 12.05 27.47 26.27 38.53 41.7 5.1901 6.9 9.4 14.53 15.33 20.86 13.96 15.66 31.07 28.3 44.1 44.83 12.43 15.43 20.64 33.63 28.5 51.67 7.5 17.44 15.26 35.08 18.19 53.99 4.03 24.57 1.92 49.57-0.12 74.23-2.34 26.74-5.15 53.87-14.92 79.1 12.89-17.49 19.48-38.91 21.91-60.32 2.5601-23.19 1.22-46.57-0.27-69.79-0.9399-14.62-3.1599-29.12-5.9399-43.49 8.04 19.78 11 41.2 12.84 62.34 1.97 23.65 2.17 47.9-4.1699 70.95-4.1101 15-11.11 29.41-21.5 41.08-2.2201 2.57-5.2101 4.56-6.67 7.71-1.26 2.32-2.1 4.9-3.89 6.88 0.73-2.21 1.62-4.35 2.51-6.5-2.17 1.55-4.24 3.2-6.46 4.65 2.9099-3.96 7.72-6.66 9.0599-11.62 7.34-21.63 9.87-44.53 11.35-67.21 1.29-25.64 3.79-51.4 1.27-77.03-1.66-17.24-6.98-33.87-13.64-49.77-8.4299-20.08-16.16-40.7-28.2-58.98-11.71-17.59-28.1-31.25-41.72-47.25 20.97 35.43 36.94 74.29 43.24 115.14 2.34 15.86 3.1699 31.96 2.27 47.97-0.5701 5.46 1.62 10.69 1.83 16.12 2.86 31.52-8.76 62.05-22.47 89.82-4.03 7.73-7.3501 16.07-13.37 22.53-2.3301 2.24-4.9501 4.86-8.4 4.85l0.14-0.63c5.9399-2.31 8.5599-9.01 11.14-14.4 11.24-28.79 24.51-57.34 28.68-88.26 0.85-4.67 0.29-9.51 1.78-14.06-2.36 1.99-1.11 5.4-1.83 8.07-3.13 19.98-9.4601 39.47-18.52 57.55-2.28 4.3-4.4701 8.69-7.36 12.62 8.86-17.44 15.94-35.87 19.62-55.14 9.9299-47.2 2.95-96.72-14.21-141.4-7.35-19.39-16.83-37.91-27.28-55.79-10.72-18.14-22.5-35.81-36.84-51.31-13.73-15.17-30.46-27.2-47.52-38.32-20.95-13.44-41.82-27.42-64.9-37.02-13.01-5.58-26.99-8.27-41-9.75z"/>
 <path d="m751.75 67.27c33.08-18.63 72.51-24.05 109.85-18.97 22.63 2.93 44.71 9.59 65.43 19.1 2.69 1.21 5.33 2.79 8.38 2.9 0.72 0.77 1.43 1.56 2.16 2.34 11.71 5.53 22.75 12.43 33.52 19.6 3.46 2.2 6.56 5.03 10.41 6.59 13.74 5.85 27.08 12.61 40.25 19.68 12.81 6.88 25.42 14.24 36.93 23.18 18.41 14.53 33.69 32.55 47.88 51.11 22.13 28.87 40.64 60.54 54.56 94.17-0.12-0.5-0.37-1.51-0.49-2.01-6.74-23.37-15.05-46.29-24.76-68.59-9.47-20.83-18.23-42.76-34.27-59.58-15.59-15.46-31.59-30.72-49.8-43.1-27.17-17.85-57.55-30.9-89.38-37.65-8.22-1.67-16.52-3.65-24.93-3.77-0.21-0.52-0.62-1.56-0.83-2.08 37.38 2.13 74.14 13.18 106.73 31.55 20.94 11.61 38.94 27.64 56.25 44 6.6801 6.06 12.77 12.78 17.74 20.34 10.84 16.46 18.2 34.85 25.94 52.88 10.37 24.86 18.13 50.75 24.09 77 2.28 9.84 3.4401 19.93 6.67 29.54 0.2899-1.98 0.49-3.97 0.88-5.93 2.0499 10.24 2.5399 20.71 4.72 30.92 3.9399 23.92 6.3 48.48 2.4 72.57-2.7001 16.77-8.2101 33.55-18.69 47.12 3.6801-6.89 7.63-13.72 10.07-21.19 5.6599-16.67 7.89-34.55 6.4099-52.09-0.01 11.41-1.5699 22.75-3.6399 33.95-2.0701 10.64-5.6201 21.58-13.41 29.48-4.3301 4.39-9.9 8.06-16.2 8.55 9.87-3.82 16.6-13 19.94-22.74 4.17-12.28 4.7-25.35 6.51-38.09-4.78 18.18-12.16 37.39-28.19 48.56-2.7799 2.34-6.77 3.05-9.02 5.98-0.2699-0.12-0.7999-0.36-1.0699-0.47-1.15 0.62-2.26 1.27-3.42 1.83 1.6901-1.76 3.75-3.1 5.51-4.78 16.59-42.17 18.23-89.99 4.5701-133.21-6.5901-21.33-16.2-41.58-26.8-61.18-22.29-40.97-49.99-79.06-82.68-112.36-21.21-21.62-44.28-41.56-69.64-58.18-12.3-5.82-25.61-9.02-38.47-13.29-0.07-0.94-0.21-2.82-0.28-3.76 1.02 0.26 2.04 0.54 3.08 0.8-0.52 0.06-1.55 0.18-2.06 0.23-1.82 2 1.45 3.03 2.99 3.24 8.15 1.62 16.17 3.86 24.12 6.28-28.52-17.71-60.7-30.04-94.12-34.12-22.06-2.62-44.62-1.74-66.26 3.44-19.68 4.65-38.4 13.28-54.81 25.09-16.51 11.81-30.8 26.5-43.27 42.45-11.72 14.76-21.01 31.19-30.55 47.39-5.22 8.96-11.44 17.27-17.84 25.41 5.78-1.48 12.04-1.49 17.52-3.92 7.39-10.27 16.02-19.65 24.55-29 13.39-14.1 28.23-27.18 45.55-36.24 18.33-9.61 38.58-14.8 58.78-18.82 29.66-5.56 60.85-7.42 90.19 0.92 17.21 5.42 33.26 13.92 48.99 22.63 30.72 17.38 58.9 39.21 83.42 64.59 31.11 32.27 54.89 70.81 75.13 110.59 10.83 21.29 20.02 43.56 25.48 66.87 6.25 27.2 7.51 55.99 0.25 83.13 1.6399-10.98 3.5199-22 3.21-33.15 0.24-27.48-6.6901-54.56-16.82-79.95-9.0199-22.49-20.74-43.78-33.17-64.55-10.18-16.85-20.85-33.45-32.9-49.04-19.99-26.13-44.04-49.04-70.53-68.51-1.58-1.41-3.1-2.86-5.11-3.61 19.67 15.15 36.72 33.62 50.62 54.19 15.15 21.93 27.49 45.64 39.29 69.51 11.09 21.95 21.77 44.15 30.88 67.02 13.76 34.4 23.09 71.72 18.66 108.97 0.0399-10.66 0.21-21.37-1.14-31.98-2.86-24.42-10.43-48.03-19.66-70.72-9.0699-22.33-20.39-43.63-31.07-65.2-11.38-22.51-22.99-44.97-36.88-66.05-15.33-23.18-33.42-44.92-55.72-61.71-26.11-19.84-58.13-29.94-90.01-35.84-24.64-4.49-49.98-5.67-74.82-2.11-17.44 2.43-34.38 7.84-50.23 15.45 13.81-8.5 29.47-13.65 45.24-17.15 25.52-5.38 51.96-4.98 77.69-1.32 31.12 4.64 62.53 13.31 88.7 31.33l0.21-0.21c-13.48-9.35-27.69-17.61-42.3-25.06-11.44-5.62-23.02-11.29-35.52-14.16-23.17-5.47-47.32-4.72-70.78-1.65-17.54 2.46-35 6.07-51.75 11.88-15.8 5.46-30.44 13.98-43.45 24.43-16.66 13.22-30.93 29.1-44.86 45.09 27.41-4.49 55.08-7.3 82.82-8.64 19.07-1.09 38.64-1.53 57.1 4.12 18.08 5.59 34.23 15.72 50.49 25.14 14.33 8.36 28.27 18.18 38.14 31.74 12.55 16.88 19.67 36.91 26.63 56.54 10.31 30.24 16.36 61.73 26.52 92.01 4.81 14.89 10.72 29.61 19.66 42.54 8.22 11.92 18.53 22.22 29.11 32.03 9.98 9.1 21.26 17.43 34.51 20.93 14.33 4.08 30.18 0.59 42.17-8.04-7.38 6.85-17.48 10.1-27.33 11.2-1.03 2.02-3.13 2.97-4.77 4.39-7.39 6.08-15.39 11.8-24.61 14.68-6.92 2.2-14.47 2.08-21.4-0.02-10.45 7.55-19.33 16.99-29.27 25.15-5.33 4.41-11.22 8.06-17 11.83 11.87-1.6 23.48-5.72 32.93-13.22-9.77 10.91-25.1 14.21-38.97 16.42-27.64 13.69-59.65 16.57-89.86 11.84-18.51-2.86-36.51-8.53-53.66-15.98-2.64-1.08-5.29-2.97-8.27-1.85l0.52-1.32-0.73-0.2c-2.99-2.28-6.54-3.64-9.78-5.4901-11.74-6.23-22.96-13.42-33.62-21.35-2.37-1.77-4.5699-3.84-7.3-5.05-0.2-0.4-0.6-1.21-0.8-1.61-2.72-1.13-5.06-2.94-7.47-4.58l-1.72-0.36 1.02-1.45c-0.6-0.54-1.19-1.07-1.77-1.59-4.43-3.18-10.08-3.68-15.3-4.59 4.89 1.11 9.74 2.5 14.28 4.69-0.12 0.23-0.36 0.68-0.48 0.91-2.68-0.11-5.09-1.63-7.72-2.09-14.96-3.59-30.31-0.08-45.18 2.27-42.86 7.36-88-0.02-126.41-20.36-19.41-10.05-36.3-24.2-55.44-34.7-14.33-7.86-30.64-12.8-47.1-11.91 13.18 17.43 28.52 33.41 46.23 46.26-2.1-4.16-4.42-8.22-6.19-12.54 5.44 6.64 8.5 15.66 16.41 19.93 33.94 22.76 73.84 36.66 114.65 39.34 21.71 1.54 43.62 0.02 64.96-4.27 16.38-3.27 32.08-9.16 48.26-13.21-8.94-3.64-18.72-5.16-28.34-4.4-11.77 0.74-23.26 3.61-34.86 5.5-59.24 9.52-122.37-6.1-169.65-43.26-3.65-2.97-7.44-5.86-10.62-9.35 30.87 22.33 66.59 38.04 104.11 44.9 27.17 5.06 55.18 5.4 82.49 1.19 14.39-2.15 29.25-4.63 43.67-1.28 5.57 1.33 10.97 3.44 15.86 6.45 2.39-0.31 5-1.1201 7.11 0.54-1.03 0.14-3.09 0.41-4.13 0.55 0.42 2.25 2.9 3.35 3.95 5.3-2.38-1.49-4.59-3.21-7-4.62-11.35 2.78-22.03 7.6-33.13 11.16-43.67 14.35-91.76 15.18-135.74 1.67-18.65-5.57-36.49-13.75-53.07-23.93 23.99 25.36 55.7 43.6 89.99 50.57 32.96 6.7 67.79 3.72 99.19-8.3 1.32-0.5 2.66-0.9301 4.06-1.2401-36.74 20.15-81.69 23.79-121.6 11.53-31.88-9.95-60.46-30.18-80.33-57.03-1.06-1.5-2.25-2.93-3.8-3.94-10.37-7.31-19.85-15.79-28.85-24.7 1.46 5.22 2.77 10.56 5.01 15.51 9.41 14.26 20.35 27.48 32.31 39.68 13.89 13.58 29.97 25.23 48.02 32.61 19.26 7.96 40.34 10.58 61.06 9.98 46.68-2.05 92.34-17.15 132.23-41.24 0.33-0.05 1-0.15 1.34-0.21-27.13 19.58-58 34.01-90.58 41.7-25.78 6.13-52.86 8.52-79.06 3.66-14.79-2.66-29.1-7.95-42-15.66-17.21-10.12-31.73-24.26-44.14-39.77-6.17-7.71-11.39-16.1-16.81-24.33 11.41 29.88 31.39 57.07 58.52 74.44 19.41 12.48 42.3 19.97 65.49 19.69 19.87-0.59 39.29-5.17 58.88-8.1 10.62-1.58 21.2-3.48 31.87-4.69l0.02 0.38c-22.92 5.19-45.73 10.91-68.79 15.42-18.12 3.73-37.16 3.98-55.05-1.0699-32.76-8.78-61.04-31.47-78.24-60.51-10.43-17.34-17.58-36.6-21.18-56.51-0.24-1.64-0.81-3.22-2.06-4.36-5.59-6.06-10.94-12.37-15.72-19.1-0.35 0.12-1.04 0.36-1.39 0.48-0.25-4.22-3.59-7.1-5.55-10.55-6.77 0.63-13.16 3.02-19.32 5.77 5.11-4.33 11.82-6.09 18.19-7.67-3.25-5.49-5.1-11.79-4.49-18.21l0.42 0.01c-0.25 6.38 2.11 13.03 6.3 17.74 8.04-0.71 16.21-0.92 24.16 0.75 5.4 0.87 10.53 2.84 15.83 4.16-6.22-2.3-11.76-7.27-13.16-13.95-1.15-7.42 1.3-14.71 1.76-22.08 0.39-6.56 2.36-14.01-2.1-19.66 5.31 2.29 6.42 8.52 6.9 13.64 1.07 8.04 0.02 16.11-0.5 24.13 0.08 8.37 8.31 13.07 15.11 15.89-4.62-8.19-8.16-16.96-10.8-25.97 6.4 7.09 10.84 15.64 16.57 23.23 6.67 9.03 15.3 16.51 24.86 22.34 3.5 2.2 7.33 3.83 10.74 6.19-3.16-0.22-6.26-0.85-9.36-1.43 13.78 8.97 28.01 17.41 43.32 23.51 21.2 8.62 43.79 13.8 66.64 15.2 7.71 0.57 15.46 0.03 23.17 0.74-2.26-0.35-4.54-0.53-6.79-0.85-11.56-0.57-23.11-2.16-34.27-5.26-3.65-1.02-7.45-1.17-11.15-1.82-18.6-3.15-36.33-10.97-51.41-22.28-2.63-1.96-4.96-4.33-7.84-5.92-8.78-4.83-17.46-9.83-26.02-15.01-8.32-5.07-16.37-11.02-22.02-19.09-8.17-11.98-11.26-26.46-14.02-40.46 4.55 12.48 7.62 25.87 15.77 36.68 8.17 11.87 21.66 18.07 34.02 24.57-3.28-4.26-6.09-8.9-9.4301-13.08-11.48-9.01-21.95-20.57-25.47-35.1-2.48-8.53-0.34-17.4-0.72-26.08-0.1-4.75-2.74-9.35-7.09-11.4-7.16-3.64-15.49-1.35-22.42 1.7-2.44 0.79-2.09 3.86-2.95 5.84 0.1-1.62 0.22-3.23 0.39-4.84-10.96 5.61-20.65 13.55-28.14 23.33-1.19-0.72-2.38-1.43-3.56-2.13 5.78-10.97 9.13-25.73 22.05-30.5-6.58 4.16-10.59 11.03-12.95 18.28 6.59-6.06 13.69-11.74 21.92-15.42 2.38-1.17 5.22-1.79 6.83-4.1 7.43-8.92 18.8-13.87 30.2-14.99 11-1.2 21.98 1.86 31.91 6.38 0.19-1.15 0.41-2.3 0.65-3.45 0.15 1.31 0.29 2.63 0.43 3.95 17.3 8.57 31.56 21.82 46.36 33.95 27.34 22.62 53.89 46.18 81.39 68.6 8.55 6.02 17.21 11.88 25.93 17.65-10.69-13.22-18.17-28.62-28.15-42.33-21.98-30.64-51.52-55.91-85.54-72.27-19.58-9.51-41.12-16.17-63.08-15.49-23.68 0.19-46.4 8.13-68.02 17.13-10.16 4.02-19.8 9.28-30 13.16 0.5-0.32 1.5-0.97 2.01-1.29 16.2-8.87 32.46-17.8 49.81-24.26 18.87-7.14 39.12-11.6 59.39-10.11 20.89 1.44 40.93 8.7 59.38 18.31 33.42 17.42 62.24 43.69 82.3 75.62 9.26 14.5 16.47 30.3 26.92 44.03 2.48 3.57 6.37 5.69 9.66 8.4 5.88 4.26 11.05 9.48 17.21 13.32-12.46-12.37-23.21-26.41-32.13-41.53-20.26-33.83-31.77-71.92-50.24-106.65-14.11-26.54-42.09-45.52-72.22-47.57-5.67-0.44-11.32 0.16-16.98 0.3 35.11-6.87 72.45 11.49 90.79 41.71 21.38 35.98 33.54 76.64 55.73 112.18 17.14 27.8 41.54 50.48 68.51 68.59 31.36 20.67 67.37 34.99 104.94 38.4 20.57 1.54 41.84-0.06 61.17-7.7-30.42 1.37-60.95-6.53-87.54-21.2-27.93-15.28-51.27-38.53-67.27-66.02-12.54-21.18-21.26-44.5-26.53-68.52-3.69-17.14-6.69-34.53-12.84-51.01-7.21-19.99-19.75-38.19-36.52-51.34-10.91-8.58-22.97-15.62-35.45-21.63-12.08-5.61-25.66-9.54-39.04-6.98-10.38 1.86-20.28 5.97-29.51 10.97 15.16 0.43 30.35 3.11 44.34 9.12 19.72 8.28 37.11 22.05 49.62 39.41 20.97 29.03 29.77 64.3 44.43 96.51 11.89 27.32 25.62 53.81 40.54 79.59 4.93 8.21 9.44 16.81 15.93 23.93 5.85 6.31 13.57 10.46 21.37 13.88 14.17 6.45 29.16 11.07 44.49 13.77 5.56 1.01 11.32 1.92 16.93 0.74 2.79-0.49 4.92-2.48 7.26-3.9-4.05 5.27-11.3 5.92-17.43 5.52-18.06-1.67-35.86-6.07-52.65-12.89-7.56-3.33-15.29-6.82-21.3-12.63-6.57-6.08-11.26-13.8-15.95-21.34-22.94-36.25-41.89-74.94-57.6-114.84-7.72-19.22-14.81-38.88-25.69-56.6-6.87-11.35-15.54-21.67-25.89-30-14.93-12.13-33.05-20.23-51.94-23.71-23.1-4.14-47.43-0.46-68.49 9.81-14.62 7.29-28.72 16.13-40.26 27.8-3.88 3.74-6.99 8.15-10.6 12.13 8.57-14.87 22.3-25.98 36.47-35.27 17.99-12.27 39.3-19.74 61.1-20.63 4.11 0.19 7.31-2.65 10.78-4.38 11.39-5.99 23.97-10.75 37.05-10.19 13.32 0.49 25.94 5.58 37.63 11.65 14.44 7.49 28.55 16.2 39.87 28.03 13.24 13.11 22.39 29.88 28.13 47.51 7.28 21.21 9.65 43.71 16.61 65.02 10.89 34.61 29.14 67.78 56.86 91.73-6.85-10.15-11.85-21.37-16.23-32.75-8.4-21.55-13.89-44.13-17.47-66.95-4.06-25.82-6.22-51.92-7.13-78.03-0.87-17.55-2.05-35.87-10.53-51.67-8.66-15.53-23.73-26.22-39.21-34.23-6.27-3.5-13.34-5.07-20.25-6.71-17.12-3.63-35.25-4.51-52.26 0.07-4.81 0.42-9.39 2.11-13.98 3.51-28.52 9.75-53.98 26.88-83.02 35.28-6.54 1.64-13.19 3.61-20 3.25 19.31-2.23 37.03-10.97 54.15-19.64 17.83-9.25 35.49-19.28 54.85-25.04 19.73-5.98 40.93-6.78 61.12-2.75 25.35 5.07 48.87 16.63 70.73 30.12 14.91 9.11 26.31 23.04 34.52 38.3 11.45 21.19 17.36 44.78 22.3 68.2 3.5 17.62 8.09 35.18 8.62 53.23 0.27 6.03-0.71 12.07 0.11 18.08 1.7 14.41 8.25 27.94 17.32 39.15 11.01 13.47 25.82 23.45 41.76 30.19 15.36 6.48 31.81 10.7 48.52 11.31 14.1 0.38 28.87-1.53 41.26-8.67-22.65-10.54-41.47-28.01-56.49-47.75-16.75-22-28.2-47.58-36.32-73.89-6.83-22.04-11.57-44.68-15.24-67.44-2.26-13.61-4.5-27.39-9.77-40.23-6.29-15.48-16.52-29.14-28.64-40.55-14.12-13.11-30.31-24.05-47.83-32.07-14.35-6.59-30.13-10.31-45.96-9.63-19.84 0.65-38.96 6.57-57.7 12.62-2.12 0.69-4.24 1.39-6.44 1.73 21.3-8.21 43.13-16.5 66.17-17.62 19.1-1.17 37.98 4.42 54.9 12.95 27.69 13.85 53.14 34.5 67.53 62.39 10.03 18.93 12.41 40.52 16.18 61.28 6.52 37.22 15.98 74.59 34.69 107.73 13.18 23.75 31.08 45.28 53.76 60.46 4.68 3.08 9.44 6.3 14.85 7.97 3.6-1.73 6.32-4.76 9.46-7.15-2.16 3.09-5.26 5.34-7.88 8.01 8.24 2.16 17.02 0.92 24.66-2.72 7.89-3.76 15.37-8.53 21.85-14.42-13.27 0.5-26.29-4.17-37.17-11.55-12.64-8.33-23.43-19.05-33.82-29.96-9.89-10.71-17.8-23.18-23.58-36.55-14.23-32.6-21.1-67.68-31.74-101.48-6.21-18.35-12.58-36.85-22.34-53.66-6.75-11.69-15.98-21.91-27.01-29.71-9.6-7.05-20.01-12.88-30.26-18.93-14.29-8.25-29.18-16.29-45.6-19.23-15.35-2.82-31.04-2.35-46.54-1.48-46.5 2.23-93.3 6.7-138.08 20.06-12.14 3.44-24.62 7.73-33.86 16.71-12.2 11.74-18.62 27.82-24.82 43.22 0.32-1.85 0.95-3.63 1.55-5.4 5.23-14.55 11.47-29.38 22.74-40.34 7.3-7.11 16.64-11.56 26.14-14.91 14.54-5.09 29.45-9.06 44.5-12.35 2.93-0.22 4.17-3.15 5.8-5.15 12.28-16.18 20.52-34.89 31.21-52.08 18.27-29.71 42.53-56.53 73.21-73.68m240.89 40.85c17.5 13.89 33.8 29.25 49.11 45.49 29.83 31.94 55.76 67.61 76.13 106.3 11.31 21.47 21.44 43.7 28.05 67.1 12.41 43.13 9.09 90.24-8 131.63 13.72-9.27 21.15-25.12 25.71-40.54 6.36-22.48 9.52-45.81 10.51-69.11-1.83-10.51-5.03-20.76-8.14-30.96-12.75-41.03-34-78.92-58.86-113.78-12.07-16.72-24.9-33.01-39.74-47.37-12.01-11.53-25.65-21.22-39.95-29.68-11.39-6.73-22.93-13.27-34.82-19.08m-242.42 146.81c7.89 6.77 15.29 14.46 19.61 24.06 10.27 21.45 9.39 45.8 11.09 68.96 2.38 43.65 7.83 87.66 22.7 128.99 4.93 13.08 10.18 26.6 19.97 36.89 8.01 8.59 19.95 13.73 31.76 12.22 0.51-0.18 1.52-0.53 2.03-0.71-5.4901 2.86-12.07 1.49-17.94 0.8199 12.38 7.09 25.3 13.37 39.01 17.48 18.19 5.69 37.4 7.91 56.41 6.96 4.26-0.94 7.98-3.44 11.82-5.42 13.83-7.52 25.37-18.4 37.33-28.47-15.99 6.53-33.67 7.82-50.69 5.69-15.03-1.88-29.65-6.47-43.33-12.92-16.01-7.62-30.57-18.8-40.82-33.38-8.87-12.54-14.61-27.68-14.46-43.17 1.43-19.99-3.88-39.52-7.88-58.91-5.02-23.47-10.88-47.08-21.82-68.6-7.44-14.66-17.91-28.16-31.8-37.19-7.4401-4.8099-15.13-9.2199-22.99-13.3m-279.56 105.62c4.47-1.04 9.12-1.81 13.7-0.99 6.96 1.09 13.62 5.74 15.83 12.62 3.38 9.78-1.44 20 0.46 29.95 1.93 13.05 9.84 24.24 18.58 33.72-11.81-21.47-16.69-46.7-13.27-71 0.74 11.51 1.6 23.09 4.73 34.25 5.66 21.94 17.07 42.42 33.01 58.55 2.73 2.57 5.3 5.45 8.73 7.11 17.15 8.69 34.64 16.88 52.97 22.78 22.47 7.49 46.49 10.75 70.09 8.13-5.19-0.66-9.98-2.88-15.04-4.02-22.96-2.23-46.77-4.26-67.61-15.01-13.91-7.02-25.16-18.41-33.69-31.3-12.11-18.37-19.69-39.16-27.89-59.44-3.58-9.69-7.8701-19.14-10.82-29.04 4.08 7.46 7.64 15.2 11.44 22.81 8.74 17.21 16.16 35.1 25.87 51.81 8.47 14.34 19.04 28.02 33.47 36.77 17.19 10.59 37.46 14.26 57.11 17.36-3.47-2.07-7-4.05-10.4-6.23-31.12-20.34-59.85-44.8-82.58-74.37-10.86-14.19-22.14-29.59-23.82-47.97-8.65-4.77-18.21-8.4-28.19-8.65-11.86-0.16-24.1 3.76-32.68 12.16m62.52-2.44c1.83 8.22 5.7 15.83 10.34 22.81 7.45 11.01 16.22 21.05 25.07 30.95 13.48 14.9 28.21 28.64 43.82 41.28 14.45 11.3 28.64 23.14 44.75 32.06 2.3 1.21 4.61 2.62 7.26 2.92 10.86 1.63 21.67 3.55 32.5 5.41-7.13 1.78-14.47-0.9-21.7-0.28 7.06 2.45 14.68 2.54 21.95 1l-0.25 1.01c6.98-0.21 13.82 1.36 20.61 2.77-18.98-13.68-38.72-26.26-58.68-38.44-12.33-8.91-24.11-18.59-35.8-28.32-16.48-13.78-32.96-27.56-49.29-41.52-13.2-10.95-25.65-23.02-40.58-31.65m-49.76 84.01c4.43 1.79 8.75 3.84 13.02 5.98-1.1-1.38-2.24-2.74-3.33-4.12-3.24-0.61-6.44-1.36-9.69-1.86z"/>
 <path d="m816 94.79c29.9-1.95 60.17-3.99 89.9 0.95 34.26 5.62 66.47 20.91 94.05 41.77 39.91 30 69.52 71.52 92.7 115.28 11.21 21.11 21 42.96 29.76 65.2 7.51 19.71 13.8 40.06 16.24 61.07 2.04 17.46 1.17 35.39-3.58 52.35-3.22 10.87-8.16 21.75-16.53 29.61 5.1901-6.87 9.84-14.25 12.54-22.5 8.4099-24.64 6.8199-51.53 0.9-76.54-5.8601-24.67-15.92-48.07-26.64-70.95-19.16-40.98-41.73-80.98-72.44-114.5-29.65-32.4-66.9-59.05-109.56-70.99-22.38-6.34-45.79-7.7-68.93-7.74-19.99 0.45-39.99 1.17-59.93 2.73-21.52 1.85-43.34 5.29-63.06 14.54-15.91 7.28-30.05 18.53-40.01 32.98 9.01-16.01 24.19-27.68 40.43-35.73 26.12-12.8 55.56-15.56 84.16-17.53z"/>
 <path d="m772.55 135.64c23.08-3.97 46.79-3.11 69.83 0.76 34.69 5.88 67.81 20.57 95.48 42.31 10.08 7.71 20.99 14.75 28.91 24.85 7.94 10.9 14.96 22.44 22.01 33.93 12.9 21.5 27.21 42.18 38.72 64.49 7.3401 14.35 13.39 29.43 17.05 45.16 5.17 22.21 6.15 45.54 15.13 66.76 3.9299 9.35 8.33 18.52 11.91 28.03 2.8199 7.37 7.5699 14.79 15.29 17.68 2.8101 0.91 5.8301 0.58 8.74 0.91-4.6499 0.59-9.6499 0.45-13.64-2.31-6.8-4.03-10.3-11.47-13.35-18.42-4.73-11.38-11.12-22.01-15.33-33.61-7.88-22.13-8.79-46.02-16.36-68.24-9-26.93-24.17-51.17-39.44-74.91-10.04-15.42-19.32-31.32-29.61-46.57-3.2599-4.64-6.34-9.46-10.36-13.5-7.67-7.83-16.85-13.92-25.42-20.68-28.73-22.61-63.61-36.76-99.68-42.13-25.22-3.94-51.31-3.78-76.1 2.68-24.57 6.15-47.44 18.95-65.15 37.1 5.61-7.43 12.83-13.52 20.25-19.06 18.02-13.05 39.19-21.61 61.12-25.23z"/>
 <path d="m1156.6 188.9c-11.69-20.05-30.03-35.18-42.07-54.96 8.46 10.44 17.82 20.11 27.2 29.73 11.67 11.88 21.73 25.58 27.73 41.23 16.46 41.18 32.33 82.84 42.1 126.2 2.6899 11.23 4.5699 22.64 6.9299 33.94 0.8-3.79 1.04-7.71 2.28-11.41 0.65 8.78 0.38 17.59-0.01 26.36 1.83 14.61 2.66 29.54-0.12 44.1-3.27 17.15-10.1 33.34-17.12 49.24 1.27-6.8 4.4-13.11 6.29-19.76 5.5299-17.06 9.34-34.97 8.24-53-4.37 19.94-10.61 39.66-20.64 57.53-2.85 4.78-7.14 9.59-13.13 9.8 5.95-2.31 9.03-8.19 11.02-13.87 8.61-23.72 15.76-48.05 20.19-72.91-5.5599-31.86-12.95-63.46-22.8-94.29-6.7301-21.29-14.39-42.27-21.87-63.3-4.2899-11.71-7.8999-23.8-14.22-34.63z"/>
 <path d="m816.26 148.48c17.99-0.34 35.86 3.5 52.97 8.85 19.29 6.38 37.43 16.12 53.68 28.29 15.11 11.41 28.58 25.27 38.25 41.63 8.44 14.3 14.11 29.96 21.03 44.99 5.83 12.68 12.87 24.8 17.99 37.81 6.03 15.28 7.87 31.84 14.01 47.09 8.79 21.3 22.58 40.04 32.02 61.03 6 12.82 11.53 26.26 21.16 36.89 8.17 9 19.68 15.63 32.1 15.53-11.74 1.42-23.13-4.07-31.64-11.8-9.42-8.45-15.76-19.63-21.31-30.85-4.45-9.04-9.03-18.03-14.28-26.63-7.73-12.82-16.15-25.31-22.14-39.08-5.89-12.86-8.32-26.88-12.38-40.33-3.64-12.24-9.78-23.5-15.55-34.83-8.84-16.69-14.61-34.8-23.28-51.57-6.22-11.87-14.32-22.72-23.91-32.08-31.29-31.77-74.44-51.04-118.72-54.94z"/>
 <path d="m1217 149.96c15.46 4.72 31.21 11 42.77 22.72 7.2 7.4 12.69 16.23 18 25.03 22.44 37.27 40.47 77.22 53.38 118.77 4.3701 14.35 8.3401 28.85 11.1 43.6-12.85-37.87-27.15-75.31-44.55-111.35-9.14-19.12-19.01-37.9-29.59-56.27-5.61-9.63-12.25-18.95-21.31-25.65-9.02-7.14-19.77-11.44-29.8-16.85z"/>
 <path d="m715.59 182.54c21.71-6.39 44.22-10.19 66.87-10.55 25.09-0.17 50.39 4.34 73.31 14.74 31.14 14.03 55.58 39.58 74.14 67.75 18.54 27.71 31.24 58.71 43.7 89.48 11.15 27.48 22.26 55.1 36.76 81.02 9.98 17.81 22.44 35.2 40.29 45.83 14.11 8.37 31.98 11.51 47.66 5.86 2.98-0.98 5.6699-2.61 8.5499-3.84-6.3099 5.06-14.46 7.45-22.42 8.2-16.38 1.5-32.95-4.18-45.76-14.32-16.92-13.22-28.53-31.75-38.75-50.33-13.53-24.53-23.75-50.67-34.57-76.45-12.95-31.11-26.69-62.24-46.11-89.95-10.36-14.71-22.29-28.44-36.34-39.75-16.52-13.46-35.89-23.37-56.49-28.83-36.23-9.71-74.66-7.04-110.83 1.58l-0.01-0.44z"/>
 <path d="m715.42 211.14c13.13-2.37 26.84-4.72 40.01-1.33 10.41 2.62 19.39 8.86 27.66 15.48 14.43 11.4 26.79 25.65 34.86 42.26 8.53 17.77 13.57 37.01 17.11 56.34 6.28 35.79 8.16 72.68 20.74 107.09 6.23 17.35 15.38 34.04 28.83 46.87 14.68 14.86 34.59 25.08 55.68 25.95 0.61-0.57 1.24-1.12 1.89-1.67-8.77-4.77-15.56-12.42-21.56-20.24-11.42-15.57-19.89-32.99-29.23-49.83-12.78-23.6-25.79-47.8-30.45-74.54-4.47-24.35-3.65-49.5-10.11-73.51-3.94-14.64-10.86-28.92-22.11-39.33-5.67-5.62-12.56-9.74-18.65-14.83 13.15 6.97 25.82 15.93 33.99 28.63 10.54 16.27 14.85 35.6 17.43 54.56 2.71 20.65 3.74 41.76 10.42 61.64 6.74 20.55 17.18 39.58 27.04 58.74 6.79 12.86 12.92 26.08 20.38 38.58 7.79 13.07 17.89 25.51 31.8 32.34 7.44 3.79 15.83 5.21 24.13 4.96l0.03 0.42c-5.35 0.1-10.76 0.74-16.02-0.55-5.9-1.05-11.22-3.9-16.74-6.06-0.49 0.49-0.97 0.98-1.44 1.48-3.91-0.6-7.88-0.18-11.77-0.82-18.24-2.48-35.15-11.62-48.42-24.19-19.88-18.89-31.26-44.9-37.8-71.13-10.37-41.41-10.75-85.01-25.26-125.43-6.06-17.36-16.17-33.29-29.64-45.84-10.32-9.61-21.3-19.65-35.23-23.47-8.98-2.37-18.37-1.79-27.48-0.67-21.79 2.81-43.52 6.15-65.33 8.66 18.3-4.04 36.84-6.99 55.24-10.56z"/>
 <path d="m1279.3 255.99c13.4 16.24 25.02 34.04 33.87 53.17 9.2999 19.78 14.44 41.26 17.2 62.87 2.26 18.84 4.1801 38.02 1.25 56.9-5.23 32.9-27.35 62.79-57.67 76.78-1.63-2.13-1.62-4.84-0.25-7.08-0.17 1.72-1.3301 4.6 0.84 5.43 28.73-16.7 48.62-47.79 51.61-80.92 1.41-16.09-0.12-32.24-1.88-48.23-2.54-21.83-7.12-43.55-15.43-63.95-7.7401-19.38-18.71-37.22-29.54-54.97z"/>
 <path d="m1251.4 258.79c16.86 33.79 26.05 71.49 26.1 109.28 3.88 25.21 6.3199 51.29 0.53 76.41-3.39 14.48-9.4501 28.82-19.78 39.73 14.68-24.23 18.01-53.37 16.66-81.18-4.54 27.1-13.59 53.73-28.71 76.8-1.47 2.49-4.34 3.21-7.0399 3.14 2.4199-0.76 5.1-1.51 6.12-4.14 10.5-20.63 17.5-42.96 21.69-65.69 2.13-10.62 2.65-21.45 4.02-32.16-1.63 4.46-1.48 9.27-2.35 13.88-3.05 18.76-8.4301 37.54-18.84 53.62-6.8301 10.58-15.84 19.96-26.88 26.14-5.6801 3.22-13.36 5.59-19.24 1.58 5.1399 1.12 10.46-0.16 14.75-3.16 15.01-10.15 25.7-25.51 33.29-41.74 8.13-17.62 12.92-36.49 18.88-54.9 1.4301-10.43-0.28-20.91-0.99-31.33-0.74-22.48-5.97-44.54-12.04-66.11-1.7698-6.81-4.7399-13.28-6.1698-20.17z"/>
 <path d="m1337.8 262.54c6.0499 0.02 10.79 4.31 14.21 8.88 28.72 36.89 38.11 87.41 26.58 132.51-2.75 9.9-6.0199 19.83-11.27 28.71 6.6399-21.21 10.65-43.42 9.9099-65.71-0.5699-34.07-10.77-67.91-29.14-96.6-2.45-3.49-5.83-6.72-10.26-7.21-0.01-0.14-0.02-0.44-0.03-0.58z"/>
 <path d="m780.53 288.16c9.84 12.2 15.85 27.01 20.34 41.9 6.81 24.27 9.62 49.4 15.08 73.97 6.9 31.94 17.03 63.53 33.55 91.88 7.94 13.45 18.22 26.29 32.34 33.58 14.9 7.82 32.28 8.5 48.72 7.42 10.15-0.61 20.13-2.74 30.23-3.71-15.14 3.96-30.64 7.06-46.32 7.55-12.6-0.03-25.5-1.95-36.77-7.84-14.68-7.4-25.45-20.54-33.89-34.32-17.8-29.87-28.2-63.55-34.56-97.57-5.3-27.63-6.82-56.03-15.23-83.02-3.16-10.5-7.98-20.39-13.49-29.84z"/>
 <path d="m1191.4 365.96c-1.2-18.69-5.0601-37.12-10.76-54.92 10.85 19.14 15.89 41.11 17.39 62.93 1.39 22.45-0.9401 45.09-6.41 66.89-2.84 11.36-8 22.7-17.39 30.11-1.4199 0.75-0.51 2.29-0.4399 3.47-0.52-1.03-1.04-2.07-1.51-3.09 8.8199-8.5 12.59-20.62 14.71-32.36 4.1599-24.07 6.09-48.63 4.4099-73.03z"/>
 <path d="m1389.4 349.44c3.9801 5.3 5.7301 11.83 8.39 17.81 4.78 2.4 8.05 6.95 11.42 10.97 13.02 17.2 16.25 39.92 13.77 60.9-2.41 20.36-9.75 40.15-21.31 57.1-8.95 12.8-21.58 23.12-36.28 28.58 14.92-2.8 28.63-10.81 38.8-22.02 6.35-6.92 11.72-14.71 16.08-23.02 4.4601-10.04 8-20.5 10.55-31.18 2.27-10 2.49-20.74-1.1801-30.43-1.33-3.96-3.7999-7.36-5.73-11.01 9.2001 7.87 13.7 20.38 13.24 32.32 0.4601-0.12 1.38-0.36 1.8401-0.47-0.4501 1.89-0.91 3.78-1.37 5.67 8.61 7.8 11.51 20.21 9.63 31.39-2.39 13.47-10.74 25.02-20.35 34.38-9.6599 9.9-21.11 17.83-33.09 24.63 7.0701 0.81 14.05-1.53 20.42-4.4 9.39-4.53 18.02-11.36 23.06-20.64 5.9301-9.87 9.3101-20.94 12.48-31.92 1 11.83-1.4099 23.88-6.74 34.48-6.34 13.42-20.13 22.64-34.7 24.6-5.1 0.67-10.53 0.44-15.19-1.92-1.6599 0.83-3.23 1.79-4.6799 2.92-3.35 0.64-6.36 2.3-9.52 3.47-6.4299 2.43-13.04 4.39-19.77 5.73 8.23-3.98 16.63-7.67 24.55-12.3-10.58 1.77-21.72 2.65-31.23 8.05-2.79 1.49-5.0701 3.71-7.63 5.51 2.87-5.1 7.62-8.92 12.79-11.51 12.21-6.43 26.77-6.33 38.83-13.1 2.5599-3.53 4.51-7.47 6.84-11.16-6.91 5.53-14.56 10.34-23.09 12.92-10.26 3.33-21.18 3.56-31.85 3.07-10.29-1.02-20.82-2.55-29.95-7.71 6.6 1.54 13.1 3.92 19.98 3.86 18.29 1.04 35.85-7.82 48.47-20.61 12.41-12.96 20.42-29.52 25.76-46.48 6.7101-22.21 8.53-46.96-0.37-68.82-3.2699-8.09-8.1399-15.62-14.43-21.67 6.46 22.27 6.1 46.74-2.6 68.37-8.5701 21.62-24.5 40.75-45.3 51.47 4.62-4.64 9.89-8.61 14.18-13.61 15.68-16.81 26.8-38.04 30.76-60.75 3.8902-21.2 1.2102-43.12-5.4798-63.47m42.53 118.23c-5.99 18.86-16.17 36.02-27.6 52.05 19.47-13.04 32.69-35.03 34.76-58.4 0.15 0.02 0.4399 0.04 0.58 0.05 0.9601 9.07-0.35 18.21-3.03 26.89 8.2101-12.45 10.01-29.9 1.15-42.51-2.39 7.19-3.2899 14.78-5.86 21.92z"/>
 <path d="m1334.4 359.76c11.8 17.9 18.55 38.89 20.56 60.18 1.72 19.87-0.28 40.24-7.12 59.05-4.33 11.55-11.7 23.06-23.43 28.08 4.99-4.05 9.55-8.71 12.55-14.47 5.86-10.58 8.38-22.59 10.24-34.43 4.1-26.61 1.58-54.07-6.38-79.73-1.7099-6.38-4.5899-12.36-6.42-18.68z"/>
 <path d="m1404.4 407.98c0.53-6.09-0.02-12.21 0.4399-18.29 8.0701 37.18-2.0399 77.99-26.68 107-7.92 9.04-18.53 16.37-30.65 18.07-7.51 1.03-15.77 0.28-22.2-4.03 11.35 3.79 24.05 1.56 33.98-4.9 11.3-7.36 19.3-18.67 25.78-30.27 11.55-20.64 17.95-44.01 19.33-67.58z"/>
 <path d="m1337.6 390.58c4.01 23.32 2.14 47.45-3.4299 70.36-2.8101 10.82-6.14 21.61-11.17 31.62-3.2999 6.37-7.87 12.6-14.52 15.72-3.5199 1.74-7.62 1.43-11.26 0.3 3.51-0.14 7.27-0.17 10.18-2.46 7.2-5.25 10.7-13.93 13.47-22.1 8.29-25.21 13.26-51.46 15.41-77.9 0.5299-5.17 0.5499-10.39 1.3198-15.54z"/>
 <path d="m446.74 450.18c2.63 5.63 3.78 11.84 5.92 17.67 6.99 20.94 14.68 41.86 26.29 60.74 8.88 14.86 20.04 28.45 33.49 39.39 13.81 11.11 30.22 18.41 46.93 23.97 15.1 4.76 30.24 9.77 45.98 11.95 13.42 1.97 27.14 0.37 40.19-3.05 16.34-4.1 31.7-11.09 47.26-17.38-10.72 6.33-22.06 11.58-33.52 16.43-20.64 8.54-43.7 12.41-65.77 7.7-20.43-4.42-40.75-10.1-59.8-18.83-14.6-6.64-27.46-16.54-38.56-28.02 6.59 11.71 14.72 22.9 25.62 30.95 12.3 8.98 26.99 13.92 41.69 17.34 23.86 5.35 48.52 8.51 72.97 6 18.68-1.89 37.26-7.5 52.84-18.2-0.17-0.3-0.5099-0.92-0.68-1.22 0.98 0.1 1.98 0.17 2.98 0.2-0.9 0.7-1.8 1.41-2.67 2.16-3.85 26.86-6.02 53.95-7.18 81.06-0.41 11.69-0.97 23.39-0.37 35.06-0.82 8.25-0.09 16.52-0.1 24.79l-1.29-0.24c-1.54 14.06-2.55 28.18-4.07 42.25-1.72 19.87-2.23 40.9 6.02 59.51-1.07-18.11-1.02-36.28-0.04-54.39-0.75-15.59-2.09-31.19-1.82-46.81l1.35 0.05c0.12 11.85 0.68 23.72 1.7 35.53 3.09 19.58 2.89 39.49 5.84 59.09 4.82 36.07 11.97 71.8 20.57 107.16 10.96 45.47 23.33 90.59 33.68 136.21 7.04 28.9 22.94 54.48 38.29 79.59 10.39 16.33 20.59 32.77 30.86 49.17 20.4 31.72 42.83 62.13 67.12 90.99 13.07 15.52 25.64 31.54 40.13 45.8 13.22 13.25 28.28 24.97 45.43 32.66 38.65 17.45 82.76 22.88 124.39 14.52 33.88-6.98 66.53-21.66 93.03-44.07 13.37-11.13 23.56-25.41 32.91-39.93 8.4399-12.94 16.21-26.32 24.9-39.1 12.55-18.71 25.93-36.85 38.91-55.26 20.36-28.91 39.93-58.79 53.1-91.76 16.15-40.33 23.88-83.58 26.67-126.8 3.75-47.41 3.92-95.03 1.67-142.51-4.8301-98.66-20.54-196.64-44.23-292.48-1.83-8.13-4.47-16.09-5.87-24.31 20.17 73.93 35.42 149.27 44.81 225.34 1.99 14.97 3.1 30.28 4.9299 45.11h0.5c0.6801 1.92-0.7699 4.45-0.1899 6.66 4.17 50.29 5.12 100.83 3.3099 151.25 15.55-10.27 24.22-27.44 31.91-43.8 6.9301-15.73 13.53-31.6 20.59-47.27 9.39-21.61 19.71-42.81 28.47-64.7 7.21-18.08 13.45-36.77 15.72-56.19 2.22-19.75-0.09-40.35-8.77-58.39-1.42 3.17-2.64 6.43-4.08 9.59-2.51 5.64-6.23 10.83-7.8101 16.84 3.97 19.08 1.35 40.13-9.53 56.57 1.91-17.71 5.04-35.28 7.39-52.95-4.7 7.56-10.21 14.74-17.34 20.16-3.55 2.97-7.72 5-11.65 7.37-3.0599 3.37-5.5699 7.25-9.12 10.18 3.98-13.16 10.06-25.55 14.84-38.4 7.8999-30.82 11.19-62.99 8.35-94.72-1.7101 5.69-2.01 11.68-2.7101 17.55-1.95 18.61-2.6799 37.35-5.3199 55.88-2.21 17.03-6.79 33.77-14 49.37-2.74 6.58-7.0601 12.54-8.35 19.67-4.6 16.75-8.16 33.88-8.35 51.31-3.2001-12.62-2.9401-25.82-0.8-38.59-0.39 0.57-1.16 1.71-1.55 2.29-0.2-0.57-0.6-1.69-0.7999-2.26 0.0499 7.31-0.99 14.6-3.4501 21.49-4.23 11.88-2.47 24.62-2.83 36.95-3.36-7.59-5.1-15.79-5.8101-24.03-1.3799 10.78-0.21 21.73-1.7699 32.48-1.4801-11.14-4.2301-22.3-3.2001-33.62 0.4501-6.03 3.1901-11.51 5.35-17.06 3.2101-8 5.87-16.31 6.79-24.91 1.6901-15.43-0.65-30.87-1.23-46.29 3.49 10.18 5.6899 20.78 7.02 31.46 6.7999-10.44 13.29-21.66 14.88-34.23 1.63-8 1.37-16.45-2.02-23.98 2.79 3.24 4.61 7.14 5.87 11.21 2.67-16.26 3.65-32.73 4.75-49.14 1.6-23.94 1.75-47.95 2.4-71.92 5.5399 33.02 5 66.8 2.01 100.06 2.5599-17.43 4.3099-35.04 8.85-52.1 1.11-4.13 1.9299-8.45 4.3099-12.09-1.34-18.31-4.8199-36.39-9.21-54.2 6.83 14.29 11.07 29.71 13.77 45.28 4.6 27.75 3.55 56.44-3.14 83.77-1.26 5.1-3.13 10.08-3.48 15.37-0.99 10.3-4.9 20.02-9.58 29.15 23.28-20.34 35.27-52.85 30.6-83.43 0.4199 0.55 1.26 1.64 1.6799 2.19 2.51-21.52 2.25-43.39-0.84-64.84-1.9301-12.08-5.3199-24.53-13.4-34.04-9.9199-11.31-23.63-18.42-37.32-24.13 12.88 1.47 25.17 7.15 35.56 14.8 12.75 9.42 18.98 25.07 21.17 40.33 3.27 22.93 2.14 46.78-4.95 68.92 1.99 6.06 3.11 12.36 3.5 18.73 3.6499-12.75 4.7899-26.13 3.25-39.3 7.24 14.13 6.3099 31.06 1.5599 45.83 11.93 19.44 15.13 43.07 12.66 65.46-2.49 24.26-11.35 47.24-20.74 69.56-6.12 14.12-12.73 28.03-19.12 42.03-8.88 19.03-17.64 38.14-27.22 56.84-8.0199 15.27-18.22 30.61-33.9 38.86-0.4701 13.39-1.6001 26.74-2.53 40.1-3.41 43.45-12.14 86.87-29.55 126.97-2.49 4.74-4 9.88-4.61 15.2 22.16 9.75 44.47 19.36 65.44 31.54 27.79 15.95 53.49 37.07 70.11 64.83 1.25-0.13 2.62-0.52 3.7999 0.25 102.03 52.97 204.06 105.96 306.09 158.93 27.69 14.63 56.78 26.51 83.99 42.07 23.08 13.16 45.3 29.39 60.23 51.77 7.53 10.66 12.31 22.86 18.3 34.39 18.58 37.17 37.17 74.34 55.76 111.52 4.3101 9.0699 9.6001 17.74 12.53 27.41 40.2 114.17 53.24 237.54 39.36 357.7-5.5 52.81-13.15 106.15-6.6699 159.23h-4.38c-5.6001-48.03-0.1001-96.36 5.13-144.15 2.8899-26.2 5.6-52.44 6.49-78.8 3.6599-98.36-10.87-197.44-43.25-290.42-2.4701-8.39-6.6001-16.09-10.52-23.85-12.34-24.67-24.67-49.34-37.01-74.01-10.24-20.7-20.85-41.22-30.78-62.06-7.23-14.29-17.11-27.19-28.97-37.94-20.1-18.1-44.23-30.83-68.34-42.68-16.13-7.95-32.54-15.3-48.52-23.55-103.52-53.78-207.08-107.48-310.58-161.3 10.99 20.06 15.71 43.09 15.44 65.84 0.33 20.04-2.3 39.95-4.4301 59.83-13.78 124.73-27.55 249.46-41.34 374.18 0.42 2.8301-2.74 1.48-4.41 1.75 0.88-17.1-9.22-32.41-21.24-43.64-14.73-14.29-33.62-22.91-50.31-34.52-13.62-9.1901-26.25-20.94-32.95-36.23-8.5399-19.02-9.12-40.17-13.08-60.34-2.72-13.9-7.23-28.06-16.8-38.85-6.08-6.97-14.19-13.18-23.75-13.76-8.9099-0.63-17.11 4.12-23.47 9.9399-10.15 9.53-17.34 21.95-21.81 35.06-6.52 19.85-6.4 41-10.16 61.4-4.6 25.24-14.7 49-25.23 72.26-48.96 105.31-86.86 215.27-123.71 325.27-9.7899 29.19-20.75 58.55-23.02 89.52-1.55 19.77 1.8899 40.5 12.96 57.27-1.2 0.78-2.4 1.5701-3.58 2.4001-11.05-16.56-14.81-36.99-13.83-56.63 1.53-32.23 13.01-62.73 23.05-93.04 36.37-108.26 73.48-216.58 121.38-320.39 9.14-20.1 18.27-40.34 24.13-61.68 6.0599-20.45 6.24-41.95 10.12-62.81 2.78-15.69 9.25-30.71 18.88-43.42 53.85-118.4 83.35-247.74 86.94-377.75-4.6799 26.19-7.84 52.65-10.28 79.15-1.5399 14.34-2 28.78-3.4199 43.13-2.66-45.1 2.37-90.48 12.99-134.33-26.44 52.24-65.54 96.48-95.59 146.5-8.65 13.83-17.18 27.81-27.5 40.48-12.21 14.63-27.52 26.46-43.94 36.01-34.89 20.22-75.48 31.21-115.89 29.11-22.31-0.98-44.45-5.5599-65.34-13.43-13.73-5.05-26.9-11.8-38.54-20.69-17.62-13.17-32.25-29.77-46.28-46.59-11.26-13.7-22.74-27.22-33.65-41.19-22.49-28.79-43.12-59.02-61.93-90.34-6.52-10.25-12.8-20.65-19.47-30.79 0.81 11.7 0.79 23.47 2.66 35.07 4.68 34.34 7.5 69.45 1.37 103.8l-1.09 0.11c1.46-16.77 1.34-33.63 0.48-50.42-0.44-6.23-0.53-12.5-1.64-18.66 0.85 49.44-1.56 99.03 3.72 148.31 4.69 45.55 15.59 90.53 32.84 132.96 20.42 49.97 50.93 96.51 92.33 131.57-4.94 10.02-6.39 21.97-2.6 32.61 4.67 13.57 15.44 24.01 27.03 31.95 18.19 12.29 39.27 19.05 59.27 27.7 16.55 7.2699 33.02 16.04 45.31 29.59 9.66 10.46 15.63 23.83 18.71 37.62 3.4199 14.72 4.14 29.87 5.1 44.9 2.8199 45.88 5.39 92.07 0.08 137.87-4.12 36.26-14.24 71.42-21.9 107.01-3.89 18.43-7.78 37.13-7.03 56.08 0.23 7.74 0.85 15.48 2.0399 23.14 0.38-3.25 0.8301-6.46 1.5-9.6299 1.3701 0.3301 2.76 0.6899 4.16 1.0701-2.36 9.0598-1.48 18.68 1.7001 27.43h-9.0601c-2.47-16.92-5.25-33.94-4.59-51.1 0.4399-17.6 4.35-34.85 7.98-52 7.55-34.38 17.18-68.43 21.06-103.5 5.63-49.48 2.0701-99.34-1.0099-148.87-1.3501-18.48-3.54-37.59-12.62-54.08-7.8101-14.33-20.97-24.9-35.05-32.69-20.35-11.46-43.05-17.78-63.75-28.51-12.54-6.4399-24.49-14.6-33.48-25.6-7.2-8.89-12.18-20.04-11.82-31.64-0.13-6.26 1.47-12.38 3.68-18.18-14.18-12.47-27.42-26.07-39.01-40.98 0.1 0.72 0.29 2.17 0.39 2.89-0.94 0.2-2.82 0.61-3.76 0.8101-3.16-9.17-11.87-15.07-20.87-17.62-8.84-2.63-19.23-2.4901-26.95 3.08-6.2 4.5699-8.01 12.69-8.81 19.92-1.46 16.44 1.88 32.78 4.39 48.95 0.24-0.73 0.71-2.1801 0.95-2.91 37.67 11.47 72.45 32.33 100.19 60.29 22.97 23.09 41.68 51.52 48.97 83.59 6.34 27.99 3.56 56.92 0.47 85.15-11.64 100.5-14.42 202.02-8.15 303h-4.4c-5.81-99.39-3.55-199.28 7.71-298.22 3.08-28.03 6.49-56.62 1.11-84.59-6.64-34.4-26.9-64.74-51.81-88.77-26.51-25.87-59.33-45.26-94.75-56.11 4.14 22.14 4.51 45.47-2.12 67.17-4.44 14.58-13.66 27.74-26.53 36.07 2.07-8.8501 2.1201-18.2-0.95-26.82-5.85-18.62-20.09-32.63-29.63-49.24-17.6-29.62-28.21-62.68-37.51-95.67-6.29-22.42-11.94-45.02-18.71-67.31-13.52-45.49-24.97-92.02-27.45-139.59-2.17-39.6 2.51-79.94 17.04-117.01 9.85-25.51 24.27-49.4 43.27-69.15-19.27 8.7-39.25 15.78-58.21 25.17-32.32 15.93-64.83 32.43-100.04 40.99-13.76 3.2999-27.84 5.3999-42 5.58-3.37-0.17-6.05 2.2-8.95 3.53-118.92 62.46-237.85 124.91-356.79 187.36-3.74 2.11-8.1 3.54-10.87 7.02-7.44 8.5599-14.91 17.08-22.38 25.61-3.6 3.8199-6.64 8.11-9.46 12.54-21.35 32.22-38.83 67.18-50.55 104.04-5.5 50.45-10.36 100.99-15.62 151.48-14.48 141.97-29.02 283.94-43.47 425.92h-4.3c19.67-192.63 39.26-385.26 59.05-577.87 11.24-36.03 28.16-70.22 48.59-101.91 3.82-5.7999 7.46-11.75 12.25-16.81 7.95-9.05 15.87-18.13 23.79-27.19 1.76-2.08 4.29-3.1899 6.64-4.4199 122.76-64.33 245.37-128.99 368.18-193.21 12.99-0.62 26.09-1.5399 38.84-4.46 39.89-8.55 76.12-28 112.53-45.62 20.45-9.47 41.93-16.66 61.88-27.21 4.52-2.6801 8.2-6.52 12.54-9.4701 5.4-3.5699 8.95-9.13 13.23-13.86 3.53-4.38 7.8-8.0599 11.85-11.92 0.91-4.53-2.39-8.0701-4.38-11.73-8.9-15.4-17.26-31.24-22.98-48.12-3.66-10.66-5.54-21.8-8.29-32.71-4.91-21.61-10.72-43.01-15.76-64.59-0.41 0.86-1.24 2.5699-1.65 3.42 0.37-1.45 0.82-2.85 1.3-4.24-5.05-20.43-10.29-40.81-14.99-61.32-2.34-8.88-3.53-18.07-6.39-26.78-0.21-4.73-1.54-9.29-2.35-13.92-2.3-11.72-4.25-23.51-6.17-35.29 0.09 10.18 2.95 20.03 4.34 30.07 0.8 6.36 2.72 12.51 3.52 18.87-1.37-2.55-2.34-5.28-3.48-7.91l-0.43 3.26c-4.84-12.23-7.21-25.23-9.41-38.14-2.27-9.44-8.08-17.49-10.98-26.7-5.98-17.8-5.64-36.98-3.35-55.4 2.63-19.96 5.61-39.88 9.2-59.69 0.73-3.69 0.51-7.46 0.7-11.18 0.41-29.38 2.33-58.75 5.69-87.94 0.75-7.4 2.2-14.74 2.45-22.19-15.35 12.69-34.82 19.48-54.43 21.82-24.68 2.97-49.74 0.02-73.79-5.89-1.27 10.62-0.15 21.38 2.3 31.75 7.67 33.61 29.24 62.3 35.57 96.32 2.55 12.34 1.29 25.04 3.13 37.45-0.5 0.6-1.32 0.51-1.69-0.17-1.4-4.84-1.83-9.88-2.99-14.76-2.26-1.79-4.98-3.1-6.6-5.58-3.85-5.33-4.2-12.13-5.75-18.3-1.52-6.59-4.79-12.64-8.98-17.89-8.02-9.89-18.17-18.01-25.11-28.79-5.98-9.57-8.96-20.7-10.64-31.77-1.95-16.08-0.63-33.14 6.57-47.84-0.44 3.78-1.43 7.46-1.96 11.23-2.63 19.2-0.24 39.13 7.35 56.99 8.14 19.44 29.35 30.22 35.38 50.85 2.25 6.7 1.54 13.9 3.22 20.7 0.9 3.86 3.49 6.99 6.44 9.52-0.97-12.33-3.89-24.46-8.22-36.03-8.35-22.76-20.86-43.89-27.23-67.39-4.19-15.07-5.71-31.21-1.73-46.5-14.1-3.7599-28.08-9.15-39.61-18.3-11.31-8.82-19.13-21.26-24.99-34.18-1.51-3.06-2.5-6.4-4.54-9.17-20.9-26.21-32.06-58.6-39.76-90.83-0.7595-3.9401-2.4595-7.8201-2.1595-11.88m957.38 266.88c-1.4299 6.11-4.8099 11.71-5.0699 18.07 2.5899-5.73 3.54-12.01 5.0699-18.07m-23.17 42.64c0.6899 7.58 0.2899 15.17-0.6801 22.7 3.3301-5.07 3.91-11.19 5.4601-16.91 1.2699-5.61 2.8099-11.16 4.2599-16.73-3 3.66-6.08 7.26-9.0399 10.94m-52.47 391.46c-1.01 37.69-3.66 75.37-8.8201 112.74-12.18 90.22-37.06 178.67-73.45 262.11 6.5399-5.42 14.54-9.67 23.21-9.78 8.95-0.2999 17.39 4.03 23.85 9.9501 10.79 9.5599 17.27 23.01 20.77 36.8 5.87 22.15 5.26 45.83 14.24 67.17 5.37 13.2 15.49 23.83 26.85 32.16 16.67 12.59 36.09 21.2 51.95 34.92 10.39 8.92 19.58 19.83 24.15 32.91 2.48-19.38 4.33-38.84 6.58-58.24 10.56-95.65 21.14-191.29 31.68-286.93 2.55-24.94 6.41-49.85 5.9401-74.98-0.13-18.18-3.28-36.54-10.82-53.16-8.4199-18.63-21.46-34.89-36.58-48.51-28.75-25.86-64.5-41.82-99.55-57.16m-572.39 21.45c-5.04 6.6-11.61 11.92-18.69 16.23-6.78 5.5701-12.8 12.01-18.5 18.67-23.66 28-38.64 62.6-46.11 98.31-5.68 26.98-6.67 54.77-4.82 82.22 3.18 45.37 14.28 89.72 27.22 133.17 6.99 23.12 12.77 46.58 19.41 69.8 11.03 38.57 24.17 77.64 48.72 109.95 10.6 14.39 20.43 30.88 20.21 49.36 9.69-9.0699 15.51-21.54 18.44-34.33 4.32-19.08 3.66-39.01 0.01-58.14-2.63-15.47-5.45-31.07-5.01-46.83 0.44-8.84 1.85-18.53 8.22-25.2 7.18-7.33 18.41-8.84 28.13-7.1799 7.2599 0.99 13.92 4.28 19.95 8.33-16.4-22.31-29.78-46.76-40.77-72.14-17.19-40.1-28.41-82.66-34.27-125.86-6.99-51.72-5.09-103.98-5.31-156.01 0.12-25.43-0.05-50.89-2.04-76.26-5.82 4.3901-9.99 10.5-14.79 15.91z"/>
 <path d="m1116.6 462.17c0.5799 0.52 0.5799 0.52 0 0z"/>
 <path d="m1474.3 476.89c-2.0699 12.14-6.92 23.65-12.49 34.57-2.61 5.34-6.49 9.93-11 13.77 10.54-1.08 12.72-12.95 18.54-19.75 0.46 4.76-0.9301 9.43-1.63 14.02 3.4399 3.91 6.2799 8.97 5.01 14.36-1.87 7.18-8.54 11.5-14.36 15.34-3.24 2.16-7.2699 1.63-10.87 1.07 7.3501 5.23 12.67 13.56 12.95 22.73 0.16 6.28 0.74 13.29-2.9 18.78 0.36-6.69-0.95-13.33-2.45-19.81-1.4401-5.9399-5.0801-11.13-9.7201-15.03-7.2799-6.24-14.61-13.13-24.12-15.67 12.46 8.75 24.19 19.49 30.57 33.6 2.5599 5.15 3.66 10.82 4.99 16.37-0.1901 5.8 0.13 11.82-2.1801 17.29-0.77-9.82-2.96-19.6-7.39-28.44-6.8099-14.64-18.08-26.4-27.73-39.13-2.62-0.18-5.25-0.06-7.85-0.2 5.3-3.09 11.86-3.16 17.64-1.48 5.9 1.71 10.97 5.33 15.88 8.93 3.21-0.61 6.8199-0.72 9.45-2.93 2.54-2.25 4.89-4.71 7.5-6.89-10.74 2.4-22.2 2.38-32.89-0.27 9.16-3.95 19.29-4.68 29.15-4.97 3.14-0.07 6.24-0.82 9.15-2.04 0.3-3.09-0.34-6.14-1.23-9.08-1.86 3-4.08 6.04-7.47 7.4-5.79 2.62-12.21 0.38-18.25 1.22-5.42 2.08-10.71 4.55-16.32 6.05 6.84-6.34 15.33-10.48 22.52-16.38 5.48-4.42 8.6901-10.83 12.03-16.86 5.0402-8.9199 9.8402-18 15.47-26.57z"/>
 <path d="m725.66 505.35c0.42 0.46 0.42 0.46 0 0z"/>
 <path d="m1307.6 526.52c1.41-0.11 1.3201 2.39 0.5801 3.16-1.4501 0.12-1.38-2.42-0.5801-3.16z" fill="#AFAFAF"/>
 <path d="m978.67 536.03c-0.28-1.42 0.27-1.9901 1.64-1.72 0.24 1.39-0.3099 1.96-1.64 1.72z" fill="#444844"/>
 <path d="m1319.4 537.68c13.02 19.33 20.18 42.12 23.52 65.06 0.29-0.11 0.88-0.33 1.17-0.44 2.21 22.88 6.67 45.54 12.86 67.68 3.5 12.4 7.64 24.67 9.95 37.38 5.3501 28.25 3.2101 57.32-1.73 85.46l-1.21 0.11c0.28-8.66 0.46-17.31 1.25-25.93-0.12-23.76-1.1899-47.79-7.51-70.82-6.1899-22.59-12.74-45.41-13.6-68.95l-0.37-0.11c-0.9401 3.63 0.01 7.69-1.8101 11.03-2.63-21.54-5.95-43.06-11.82-63.99-3.17-12.28-7.43-24.24-10.7-36.48z"/>
 <path d="m1327.1 538.85c14.73 10.32 22.95 27.27 28.14 44.02 7.02 23.79 11.14 48.39 12.98 73.11 0.97 16.17 1.33 32.5-0.4 48.62-2.64-27.41-5.22-54.89-10.14-82.03-4.02-21.13-7.33-42.76-16.34-62.48-3.49-7.87-8.7001-14.74-14.24-21.24z"/>
 <path d="m1355.4 547.96c15.64 8.5099 24.49 25.47 28.67 42.19 4.99 21.28 4.5199 43.59 0.9299 65.06-1.5699 8.32-3.41 16.67-6.52 24.57 0.88-11.92 2.5901-23.8 2.86-35.77 0.67-22.64 0.1901-45.94-7.4399-67.53-3.77-10.84-10.24-20.59-18.5-28.52z"/>
 <path d="m1384.4 555.38l0.45-0.08c9.73 18.09 15.82 38.13 17.28 58.64 1.6901 19.12-0.8099 38.46-6.15 56.85-4.5499 16.08-10.03 32.32-9.61 49.24-0.16 5.2 1.23 10.24 1.9301 15.34-5.1901-10.98-5.89-23.59-4.54-35.51 2.21-19.61 9.52-38.24 11.5-57.89 3.4999-29.21-0.8901-59.02-10.86-86.59z"/>
 <path d="m1417.2 567.82c6.67 2.96 12.16 8.18 16.32 14.11 6.2001 9.1 7.9701 20.32 8.5701 31.1 0.87 15.67 1.5599 31.71-2.7001 46.99-3.72 15.37-10.83 30.68-8.5 46.83-0.2-0.09-0.58-0.27-0.7699-0.36-2.38-8.41-2.38-17.31-0.9401-25.88 2.3-14.2 6.8201-28.09 7.01-42.59-0.05-12.04 0.33-24.11-0.79-36.1-0.8099-9.08-3.96-18.02-9.61-25.22-2.4499-3.35-5.6898-5.96-8.5899-8.88z"/>
 <path d="m516.66 606.99c0.69-2.61 1.02-5.4 2.65-7.63-0.23 5.85-1.06 11.68-0.91 17.56-0.22 17.01 3.57 33.76 8.08 50.07 3.72 13.51 7.32 27.58 15.86 38.99 5.4 7.43 13.05 13.22 21.81 16.07-0.2-2.78-0.29-5.58-0.2-8.36 3.1899 3.28 4.35 7.83 5.98 11.97 3.61 10.9 5.61 22.53 4.64 34.02 4.81-1.06 10.2-0.33 13.83 3.25 5.6 5.53 7.77 13.4 10.32 20.62l0.84-0.52 0.56-0.7c0.58 6.64 5.05 11.89 9.6 16.38 7.05 6.92 16.15 11.82 25.89 13.61-0.23-0.62-0.68-1.86-0.91-2.49 5.1299-16 5.81-33.13 4.06-49.75-1.94-20.4-7.63-40.15-12.5-59.98-5.48-21.25-10.4-43.11-9.08-65.2 1.89 12.81 4.27 25.58 7.75 38.08 5.95 22.62 13.7 44.84 17.41 68 2.99 18.56 3.25 37.84-1.79 56.07 2.6-5.55 5.73-10.84 8.4-16.36 0.98-1.72 1-3.7 1.0699-5.6 0.79-42.03-13.25-82.94-10.9-125.04 0.45-8.42 1.99-16.72 3.69-24.96l0.42 0.0699c-2.11 21.94 0.21 43.99 3.78 65.65 3.1 20.02 6.99 39.99 8.03 60.28 0.21 3.0099-0.09 6.09 0.56 9.08 6.52-32.73-1.14-66.5 5.85-99.18 2.08-8.78 4.81-17.61 9.8199-25.2-3.7599 10.07-6.34 20.58-7.0699 31.34-2.17 27.61 2.75 55.31-0.46 82.88 5.89-26.59 12.47-53.48 11.39-80.93 4.45 19.74 2.4 40.24-0.85 60-5.19 31.14-14.42 62.11-12.38 93.98 0.74 9.65 4.28 19.33 11.66 25.87-9.19-4.85-13.64-15.2-15.49-24.94-3.21-18.93-0.67-38.18 2.04-57.01-1.13 6-4.14 11.37-6.26 17.02-1.93 11.1-4.74 22.26-10.26 32.16 2.26-7.93 4.38-15.93 5.32-24.14-6.17 9.43-12.41 20.4-10.22 32.1 0.65 4.72 3.49 8.62 6.65 12.02-8.09-4.54-10.49-14.75-9.72-23.37-9.26-1.09-18.51-4.64-25.46-10.94-0.4 0.39-0.78 0.8-1.15 1.22 6.59 13.41 16.02 26.4 16.35 41.9 0.29 10.3-2.01 21.09 2 30.96 4.99 12.85 15.97 21.79 25.31 31.39-13.09-6.87-25.84-16.61-31.6-30.67-3.87-9.75-2.27-20.43-1.91-30.61 0.51-9.75-3.18-18.98-6.33-28.02-1.9-5.11-3.3199-10.37-4.84-15.6l1.24 0.31c-0.26-0.56-0.77-1.7-1.03-2.26-5.71-4.85-10.31-10.99-13.29-17.86-1.35-3.13-2.63-6.28-4.22-9.28-3.74 0.39-7.89 1.71-9.5 5.46-3.49 7.92-2.35 16.94-0.87 25.21 4.19 20.29 14.03 38.74 22.78 57.33-8.02-7.96-14.02-17.77-19.27-27.72-6.95-13.73-11.94-29.18-10.09-44.73 0.72-5.4 2.38-11.23 6.83-14.74 2.72-2.21 6.37-2.34 9.7-1.95-2.28-3.67-5.09-8-9.8199-8.44-4.11-0.61-7.65 2.16-9.98 5.24-4.07 5.46-5.59 12.39-6.04 19.07 0.7 4.71 1.91 9.34 2.18 14.12-0.61 1.52-1.36 3.1201-0.71 4.78 3.72 16.08 12.46 30.42 22.23 43.51 8.14 10.8 16.75 21.27 24.22 32.57 6.66 9.65 11.77 20.26 15.85 31.23 3.6 9.69 8.25 19.07 14.66 27.24 8.62 11.19 20.07 20.18 32.96 25.97 5.58 2.53 11.54 4.81 15.84 9.36 5.91 5.89 8.5 14.49 15.28 19.59 3.19 2.39 7.48 4.26 11.46 2.9301l0.84-2.56c0.12 1.3799 0.91 3.58-1.22 3.73-5.25 1.17-10.69-1.03-14.53-4.59-5.43-4.71-8.43-11.47-13.54-16.45-3.98-3.77-9.16-5.84-14.16-7.87-15.1-5.79-28.53-15.8-38.53-28.5-7.01-8.7-11.56-19-15.6-29.33-3.68-9.43-8.44-18.41-14.17-26.75-10.95-15.98-24.08-30.39-34.09-47.01-7.14-11.91-12.68-25.04-14.38-38.9-0.74-5.31-0.16-10.67-0.25-15.99-3.04-6.11-8.09-10.83-12.96-15.47-10.42-10.14-15.92-24.41-17.58-38.66-1.29-11.7-0.46-23.55 1.53-35.13-5.65-11.65-8.96-24.23-11.97-36.77-4.0299-17.01-5.24-34.99-1.13-52.1m15.4 93.18c0.38 18.12 1.01 37.11 9.8 53.46 4.34 9.25 12.81 15.49 18.13 24.06 1.92-0.25 1.5-4.05 2.46-5.6 2.71-4.69 5.95-9.35 10.96-11.79-5.05-12.03-8.08-24.88-9.19-37.86-9.54-0.84-18.02-5.95-24.74-12.53 4.42 13.28 12.63 24.78 18.26 37.5 3.23 7.78 6.33 16.4 4.57 24.9-2.84-8.41-6.73-16.4-11.1-24.11-6.78-12.45-14.5-25.64-13.48-40.36-1.9699-2.51-3.82-5.09-5.67-7.67z"/>
 <path d="m595.23 636.56c0.41-4.55 0.41-9.17 1.42-13.64 1.87 26.1 2.1 52.54 8.39 78.09 4.7 20.24 15.25 38.95 17.01 59.89 0.98 12.28-0.99 25.8-9.35 35.38 4.83-9.3101 6.7-19.96 5.37-30.35-2.11-20.53-12.92-38.65-18.06-58.37-6.15-23.1-6.4399-47.3-4.78-71z"/>
 <path d="m579.45 652.02c-1.01-9.11-2.11-18.59 0.6899-27.5 1.25 13.04 5.05 25.63 7.44 38.47 2.58 12.65 4.9301 25.35 6.82 38.12 0.41 3.38 1.18 6.77 0.78 10.2-8.28-18.8-13.17-38.95-15.73-59.29z"/>
 <path d="m1348.7 671.21l0.55-0.12c1.0299 9.52 3.47 18.8 6.21 27.96 4.73 15.93 7.35 32.45 8.29 49.03 0.2699 7 1.4199 13.97 0.8799 21-0.5599 7.6-0.9199 15.21-1.1799 22.82-1.42 3.44-0.5701 8.15-3.14 10.77-0.8099-2.52-0.0599-5.16-0.13-7.72-0.02-9.04-0.75-18.05-1.35-27.06-1.08-16.01-2.24-32.04-4.59-47.92-2.09-16.22-7.2499-32.24-5.54-48.76z"/>
 <path d="m1226 717.18c5.64 1.18 11.36 1.82 17.12 2.15-0.1899-0.63-0.5699-1.88-0.76-2.51 1.6001 1.07 2.9601 2.75 4.9801 3.05 4.5399 0.88 8.84 2.64 12.97 4.68-1.63-2.35-3.25-4.71-4.46-7.3 8.4199 5.17 14.19 13.38 21.27 20.07 5.5 5.92 11.31 11.64 16 18.26-4.0199-2.62-7.5499-5.89-11.35-8.79 0.64 1.52 1.3 3.03 1.89 4.59-4.5699-3.96-8.61-8.48-12.5-13.08-4.58-6.11-11.75-9.59-18.65-12.41 2.9701 3.36 5.77 6.86 8.3401 10.54 2.5699 3.15 5.3099 6.19 7.58 9.58-6.37-1.68-9.72-7.83-15.32-10.78-4.73-2.83-9.6299-5.44-14.82-7.33 4.03 3.83 7.7 8.06 12.54 10.93l-2.49-0.18c0.89 1.42 1.8099 2.87 2.6899 4.33-4.96-2.26-8.76-6.3-13.35-9.11-7.17-3.18-14.5-6.24-22.2-7.83 7.7699 3.96 14.98 9.7 19.36 17.37-10.02-5.43-19-12.59-28.43-18.94-5.84-0.98-11.77-1.29-17.63-2.17 0.02-0.16 0.04-0.48 0.05-0.65 5.83-0.4901 11.67-1.17 17.54-1.01 6 0.55 11.95-1.21 17.95-0.35-0.22-0.57-0.66-1.72-0.88-2.29 4.5 3.41 10.32 3.36 15.42 5.35 3.3301 1.1 6.4801 2.6801 9.5701 4.34-1-1.51-1.99-3.02-2.96-4.51-6.5999-1.52-13.7-2.18-19.47-6m-2.59 6.05c1.87 0.95 3.8101 1.77 5.75 2.6-0.23-0.4-0.71-1.18-0.95-1.57-1.6099-0.36-3.21-0.72-4.8-1.03z"/>
 <path d="m1404.1 717.06c-1.5299 6.06-2.48 12.34-5.0699 18.07 0.2599-6.36 3.64-11.96 5.0699-18.07z" fill="#BBB7B6"/>
 <path d="m1260.3 717.79c7.76 2.01 14.57 6.66 20.67 11.73 8.6799 7.68 16.27 17.47 18.84 28.97-4.45-5.83-8.54-11.98-13.58-17.34-7.7-8.79-16.87-16.06-25.93-23.36z"/>
 <path d="m1223.4 723.23c1.59 0.31 3.1901 0.67 4.8 1.03 0.24 0.39 0.72 1.17 0.95 1.57-1.9399-0.83-3.88-1.65-5.75-2.6z" fill="#BBB7B6"/>
 <path d="m1172.2 724.53c13.64 1.7 27.56 3.06 40.43 8.22 6.39 2.78 12.9 6.27 17.09 12.01-4.6801-2.66-9.51-5.09-14.61-6.82 2.5701 2.65 5.4801 4.99 7.6901 7.99-9.02-3.62-17-9.35-25.89-13.21-3.16-0.97-6.36-1.77-9.5601-2.52 7.76 3.79 15.43 8.08 21.6 14.25 1.6899 2.05 4.26 2.82 6.58 3.94-0.66-0.07-1.98-0.21-2.64-0.27l0.2001 1.7c-3.79-2.54-8.4501-2.4-12.73-3.43 1.27 1.71 2.55 3.4 3.7001 5.22-4.8-2.11-8.76-5.73-13.56-7.78-8.1799-2.58-16.32-5.32-24.22-8.68-2.97-1.31-6.25-2.34-8.34-4.96 4.73 1.4 9.5399 2.7 14.46 3.27 6.47 0.12 12.92 1.83 18.45 5.23 2.89 1.85 6.2301 2.76 9.42 3.98-6.99-4.52-14.36-8.52-20.78-13.86-2.1201-1.92-4.8301-2.92-7.29-4.28z"/>
 <path d="m1282 724.47c5.88 2.75 10.29 7.84 14.05 13.01 4.4399 6.51 7.86 13.99 8.4299 21.94-4.59-6.68-8.34-13.9-12.87-20.61-3.1199-4.85-6.5899-9.45-9.6099-14.34z"/>
 <path d="m1145.1 733.66c9.29 4.97 17.98 11.52 28.48 13.81-5.51-4.25-11.6-7.85-16.35-13 9.52 2.67 18.09 8 25.72 14.2 0.6801 0.6 1.48 0.95 2.41 1.06 5.0499 0.8 10.08 1.74 15.18 2.23-3.99 1.6-8.33 1.34-12.52 1.27 1 1.21 2.11 2.49 3.1299 3.75-2.6799-1.01-5.1399-2.48-7.7599-3.56-3.65-0.69-7.38-0.92-11.04-1.5 3.38 3.01 6.92 5.96 9.41 9.8-11.45-4.96-21.3-12.81-31.33-20.09 0.29-0.31 0.87-0.95 1.16-1.27-2.4299-1.96-4.6998-4.13-6.4899-6.7z"/>
 <path d="m1137.7 740.22c3.3099 3.04 6.2799 7.03 10.68 8.47 11.57 0.91 20.55 8.86 30.33 14.15-9.3301 0.61-18.73-1.97-26.9-6.42-6.2001-3.69-12.34-8.89-14.11-16.2z"/>
 <path d="m1116.7 766.59c-1.37-7.21-2.7001-16.3 3.64-21.63-2.5 7.61-0.03 15.39 1.0399 23.01 0.77 4.29 1.4 8.8 4.0601 12.41-5.6301-2.0399-7.3101-8.6099-8.74-13.79z"/>
 <path d="m1131.2 746.14c3.8199 2.43 7.34 5.29 10.77 8.26 2.0699 2.09 5.24 2.06 7.7899 3.31 5.9401 2.64 11.36 6.46 16.05 10.96-4.8301-0.43-9.14-2.65-13.51-4.52 4.36 4.12 10.43 5.15 16.07 6.35-6.6799 2.01-14.51 1.1-19.75-3.75-6.5199-6.22-13.02-12.67-17.42-20.61z"/>
 <path d="m1146.1 777.78c-13.1 1.23-23.68-14.51-17.53-26.16 0.9 6.71 2.9 13.57 7.67 18.6 2.75 3.14 6.3101 5.4 9.86 7.56z"/>
 <path d="m1416.9 772.06c-0.12-6.24 0.67-12.63 3.22-18.38-0.5699 5.11-1.1 10.27-0.51 15.41 1.4601 13.34 8.4701 25.42 9.49 38.84 0.92 15.98-5.7899 31.32-14.23 44.52-8.6599 13.42-22.31 22.87-30.12 36.89-2.4 4.09-3.75 8.67-5.7 12.97 0.91-8.08 3.51-15.99 7.8099-22.9 5.78-9.58 14.01-17.35 20.26-26.61 6.01-8.8 10.77-18.49 13.83-28.71 2.08-7.14 2.96-14.77 1.5499-22.12-1.6798-10.01-5.2199-19.7-5.5999-29.91z"/>
 <path d="m785.12 760.19c0.84-0.85 1.72-1.67 2.63-2.45-0.97 3.07-3 5.61-4.71 8.28 1.19-0.04 3.57-0.11 4.75-0.14-2.75 1.88-6.39 2.28-8.71 4.79-8.56 9.07-19.37 15.55-30.07 21.77-3.6 1.99-7.04 4.32-10.88 5.84 3.44-4.11 8.22-6.88 11.44-11.19 6.79-8.48 15.5-15.87 25.99-19.22 2.86-0.73 4.91-2.96 6.9-4.99-5.91 2.7-12.19 4.83-17.6 8.47-13.63 11.12-26.59 23.07-40.68 33.61 9.88-13.32 22.54-24.34 35.22-34.93-7.08 3.5099-13.69 7.96-19.23 13.62-7.88 8.25-17.95 15.32-21.69 26.6 0.01-7.88 4.69-14.69 9.76-20.33 6.9-7.81 14.11-15.9 23.76-20.32 7.24-2.7 13.78-7.46 21.58-8.47-3.23 1.63-6.45 3.31-9.2599 5.63 6.7598-2.7 13.81-4.57 20.8-6.57z"/>
 <path d="m802.96 763.57c2.66-1.76 5.15-3.75 7.79-5.54-1.38 2.64-3.44 4.8199-5.16 7.24-6.16 5.09-12.43 10.12-17.97 15.91-6.29 6.49-12.16 14.5-21.27 17.06 5.32-4.86 10.35-10.1 14.3-16.15-7.23 5.43-13.9 11.59-21.42 16.63 1.98-3.54 4.87-6.42 7.32-9.61-5.44 3.6-10.72 7.57-16.79 10.06 6.36-7.28 14.05-13.29 21.45-19.48 6.83-5.25 13.44-10.95 21.04-15.09-2.03 3.06-4.68 5.63-7 8.45 5.58-3.7899 12.3-5.4299 17.71-9.4799z"/>
 <path d="m824.43 765.02c3.76-0.65 5.91-4.24 9-6.12-0.93 1.8199-1.99 3.59-2.94 5.41-5.63 6.83-11.06 13.83-17.07 20.35 6.59-5.42 13.3-10.85 20.99-14.67 5.75-2.42 11.26-5.51 17.25-7.34-0.78 0.75-1.56 1.49-2.35 2.22 1.17 0.02 3.53 0.05 4.71 0.06-3.63 2.05-7.8199 2.96-11.28 5.31-11.15 8.66-20.88 19.11-32.56 27.07 2.63-4.63 6.37-8.46 9.63-12.63-4.58 2.78-9.18 5.54-14.02 7.88-3.81 3.2-7.45 6.88-12.39 8.32 7.06-6.64 12.3-14.87 18.98-21.86 2.91-3.45 6.33-6.44 9.25-9.88-13.67 7.42-24.09 19.46-37.95 26.57 0.55-1.15 1.21-2.28 1.31-3.57 6.96-7.63 15.52-13.51 23.24-20.31 4.07-3.29 8.01-6.78 12.56-9.4-0.99 1.73-2.14 3.38-3.3 5.01 2.25-0.98 4.55-1.84 6.94-2.42z"/>
 <path d="m886.13 761.65c1.62-0.81 3.36-1.34 5.16-1.61-6.29 4.92-12.71 9.79-18.08 15.74 4.03-1.85 7.95-3.95 12.18-5.33 9.1801-1.78 17.87-5.95 27.39-6.07-7.51 3.56-15.49 6.12-22.79 10.13-9.17 4.76-17.65 10.78-25.29 17.71-0.76-0.3199-1.51-0.6299-2.2401-0.9399 2.3-2.79 4.72-5.4901 7.03-8.29-3.07 1.87-6.56 3.36-8.74 6.33-3.33 4.12-6.22 8.56-9.43 12.76 0.62-3.84 2.35-7.34 4.03-10.81-3.98 2.35-7.98 4.66-12.15 6.63 4.85-5.97 11.52-10.04 17.32-14.94 6.7101-8.9702 15.43-16.54 25.61-21.31z"/>
 <path d="m833.53 786.19c9.13-10.55 20.52-19.15 33.07-25.25-3.67 4.51-8.43 7.92-12.46 12.07 6.51-2.11 11.18-7.52 17.54-9.95-1.59 2.07-3.39 3.96-5.24 5.8 1.92-0.18 3.85-0.3 5.79-0.34-3.1 2.64-7.64 2.8-10.71 5.54-8.49 8.27-16.7 16.83-25.04 25.23 2.28-6.05 5.96-11.43 10.02-16.41-3.23 1.8-6.36 3.79-9.53 5.7-4.76 3.51-8.35 8.31-12.67 12.31 1.09-2.9 2.71-5.55 4.28-8.2-1.98 0.53-3.9 1.14-5.8799 1.63 3.5399-2.8 7.5799-4.97 10.83-8.13z"/>
 <path d="m722.58 779.19c6.63-8.54 16.59-15.62 27.84-15.17 3.57 0.4 7.09-0.21 10.64-0.57-12.63 6.73-25.24 14.49-34.55 25.59-5.98 6.5-11.6 13.37-15.95 21.09 1.16-5.74 3.57-11.21 7.04-15.91 3.65-5.59 7.75-10.88 12.49-15.58 6.48-5.53 13.98-9.66 21.57-13.47-15.55 2.59-25.87 15.88-33.79 28.38l-1.17-1.05c0.06 0.56 0.16 1.66 0.21 2.21-3.82 4.83-7.17 10.07-11.64 14.34 4.84-10.43 10.3-20.71 17.31-29.86z"/>
 <path d="m1106.5 781c-5.0399-4.32-9.01-11.66-5.62-18.15 0.8 4.6801 2.9401 9.07 6.3 12.45 3.77 3.85 7.25 9.49 13.51 8.72-4.57 4.14-10.77 0.86-14.19-3.02z"/>
 <path d="m890.76 781.35c7.7599-5.16 16.57-9.58 26.13-9.33-4.59 2.23-9.2 4.4-13.72 6.75 2.08 0.17 4.17 0.28 6.25 0.61-5.12 1.49-10.13 3.34-15.09 5.29-6.29 3.54-11.79 8.39-18.34 11.49 1.63-2.59 3.78-4.78 5.7-7.16-8.28 3.09-16.5 6.4-24.27 10.62 1.69-2.3 2.97-4.86 4.15-7.45 0.49 0.84 0.98 1.7 1.5099 2.54-0.1-0.65-0.31-1.97-0.42-2.63l2.34 0.4c7.8802-5.19 16.77-8.47 25.76-11.13z"/>
 <path d="m1128 794.69c18.15-13.75 40.76-21 63.38-22.13 18.82-0.88 37.96 0.69 56.06 6.15 12.79 4.11 24.65 10.64 36.28 17.24-7.97-2.78-15.43-6.81-23.36-9.71-8.97-3.68-18.38-6.31-28-7.54-25.22-3.66-51.63-3.44-75.87 5.13-12.49 4.16-23.64 11.38-34.29 18.96-7.4401 5.42-15.38 10.79-20.25 18.81-1.8601 2.89-2.7201 6.2401-4.1001 9.36 0.8101-6.4901 3.76-12.57 8.0801-17.45 6.3599-7.36 14.41-12.93 22.07-18.82z"/>
 <path d="m1139.4 799.81c18.51-15.39 43.27-22.74 67.19-20.36 17.55 1.17 34.17 8.12 48.91 17.42 9.21 5.87 17.77 12.88 24.75 21.32 0.7999 1 1.46 2.1 1.98 3.31-6.98-3.97-13.27-9.07-20.37-12.88-15.42-8.53-31.75-15.79-48.92-19.95 5.47 4.52 9.58 11.03 9.53 18.32 0.8199 11.89-7.51 22.57-17.94 27.38 13.33-0.91 26.83-1.34 39.9-4.4 9.46-2.11 17.92-9.17 28.05-7.5699-6.5901 0.18-12.4 3.38-18.03 6.46-9.88 5.23-21.12 6.93-32.09 8.26-17.58 2.11-35.49 2.78-53.01-0.23-9.74-1.59-19.08-5.02-28.83-6.53-8.45-1.27-17.51-0.94-25.19 3.15-1.61 1.07-2.46 2.94-4.1 3.99 6.08-14.61 16.03-27.58 28.17-37.69m50.46-10.28c-6.63 0.9399-13.43 2.04-19.4 5.25-3.28 1.73-6.05 4.5699-7.24 8.1299-2.75 7.58-0.15 16.29 5.2999 22 4.3 4.72 10.57 7.2401 16.84 7.9301 13.92 1.3799 27.97-8.44 31.68-21.87 2.27-8.25-3.21-16.56-10.53-20.01-5.1001-2.78-11.12-2.07-16.65-1.43m-74.72 43.08c6.77-3.73 14.5-5.68 22.24-5.23 11.62 0.47 22.75 4.17 34.23 5.64-5.48-3.65-10.18-8.74-12.32-15.06-2.1899-5.75-1.35-12.03-0.38-17.93 0.5801-3.63 3.25-6.3101 5.5801-8.94-20.58 7.63-38.23 22.63-49.35 41.52z"/>
 <path d="m899.73 786.21c8.39-4.8 18.34-6.54 27.88-5-4.42 1.97-9.28 2.57-13.78 4.3 2.59 0.36 5.2 0.7 7.79 1.23-9.61 2.94-19.88 3.16-29.37 6.54-3.79-0.09-7.49 0.75-11.21 1.24 5.35-4.52 12.36-5.83 18.69-8.31z"/>
 <path d="m1189.8 789.53c5.5299-0.64 11.55-1.35 16.65 1.43 7.3199 3.45 12.8 11.76 10.53 20.01-3.71 13.43-17.76 23.25-31.68 21.87-6.27-0.69-12.54-3.21-16.84-7.9301-5.45-5.71-8.0499-14.42-5.2999-22 1.1899-3.56 3.96-6.4 7.24-8.1299 5.9699-3.21 12.77-4.31 19.4-5.25m-3.9501 11c-4.3999 2.8199-6.36 9.14-3.75 13.81 2.12 4.94 9.38 6.15 13.3 2.7 3.85-2.83 4.4-9.14 0.91-12.46-0.65-1.2-1.6801-2.13-2.75-2.91-2.3-1.32-5.17-2.38-7.71-1.14z" fill="#444844"/>
 <path d="m913.43 790.94c7.32-0.8 15.17-1.77 22 1.74-5.83 1.67-11.94 1.98-17.97 1.81-9.72-0.23-19.26 1.83-28.8 3.32 6.57-6.22 16.04-7.91 24.77-6.87z"/>
 <path d="m1185.9 800.53c2.54-1.2401 5.41-0.1801 7.7101 1.14-2.89-0.01-6.5601-0.67-8.55 1.98-2.22 2.74-2.49 7.8 0.89 9.75 3.1 1.52 7.61 0.78 9.41-2.39 0.96-1.99 0.8099-4.29 1-6.43 3.49 3.32 2.9399 9.63-0.91 12.46-3.92 3.45-11.18 2.2401-13.3-2.7-2.6101-4.67-0.65-10.99 3.7499-13.81z" fill="#797471"/>
 <path d="m1185 803.65c1.99-2.65 5.66-1.9901 8.55-1.98 1.0699 0.78 2.1 1.71 2.75 2.91-0.1901 2.14-0.04 4.44-1 6.43-1.8 3.17-6.3101 3.91-9.41 2.39-3.38-1.95-3.1099-7.01-0.89-9.75z" fill="#BBB7B6"/>
 <path d="m815.35 810.09c20.62-5.14 41.97-5.02 63.07-5.85 11.59-0.24 23.38 1.09 34.13 5.67 11.15 4.54 21.38 10.98 31.35 17.66 5.66 4.07 11.42 8.94 13.76 15.74-4.06-6.32-9.74-11.38-16.31-14.97-12.05-6.9-24.22-14.07-37.81-17.5-11.08-3.1-22.71-2.73-34.08-2.04-11.31 0.8-22.67 0.61-33.94 1.95-16.56 1.87-33.17 5.67-48.05 13.35-12.16 6.53-23.68 14.25-34.35 23 5.28-6.54 12.24-11.48 18.91-16.51 12.91-9.5901 27.57-16.98 43.32-20.5z"/>
 <path d="m857.4 810.47c4.98-0.47 10.03-0.78 14.98 0.25 13.53 1.36 26.71 5.48 38.86 11.54 8.15 4.03 16.21 8.66 22.59 15.25 3.63 3.66 7.11 7.84 8.59 12.88-1.99-1.39-2.98-3.67-4.47-5.49-6-7.77-14.7-12.9-23.47-16.97-9.86-4.42-20.15-7.98-30.78-9.94 5.12 5.53 6.99 13.8 4.58 20.97-1.95 6.63-6.64 11.96-11.71 16.46 13.53-2.64 27.14-4.85 40.74-7.08 5.72-1.04 11.64-0.65 17.24 0.86-4.53 0.08-9.12-0.59-13.58 0.52-21.45 5.11-42.97 9.98-64.64 14.07-6.23 1.01-12.54 2.03-18.86 1.56-7.75-0.43-15.56-0.5099-23.21-2-9.69-1.5699-19.29-4.54-29.21-3.98 12.33-2.95 24.91 1.42 37.34 1.63 7.6801-0.12 15.42 0.88 23.08-0.22-14.3-3.72-23.74-20.25-18.77-34.39-17.26 8.15-33.47 19.52-44.59 35.26-2.15 2.8-3.65 6.06-6.09 8.63 1.96-12.26 9.32-23.05 17.68-31.95 16.52-17.26 40.16-26.25 63.7-27.86m2.45 4.07c-6.38 0.67-12.79 1.7-18.78 4.06-3.57 1.45-7.14 3.55-9.07 7.02-3.41 5.89-3 13.5 0.37 19.33 3.75 7.05 11.06 11.86 18.92 12.96 14.71 2.3701 30.32-8.11 33.5-22.7 1.64-7.58-3.41-15.22-10.02-18.59-4.5099-2.62-9.88-2.7-14.92-2.08z"/>
 <path d="m859.85 814.54c5.04-0.62 10.41-0.54 14.92 2.08 6.61 3.37 11.66 11.01 10.02 18.59-3.18 14.59-18.79 25.07-33.5 22.7-7.86-1.1-15.17-5.91-18.92-12.96-3.37-5.83-3.78-13.44-0.37-19.33 1.93-3.47 5.5-5.57 9.07-7.02 5.99-2.36 12.4-3.39 18.78-4.06m-5.96 11.06c-5.34 3-7.25 11.2-2.86 15.81 3.83 4.79 12.37 3.22 14.54-2.43 1.71-3.32 0.3-7.12-1.91-9.79-1.14-0.88-2.24-1.76-3.3-2.69-1.9199-1.17-4.31-1.73-6.47-0.9z" fill="#444944"/>
 <path d="m963.09 822.54c5.35 5.83 8.99 12.98 12.76 19.88 4.96 10.15 10.89 19.86 14.76 30.52 11.34 29.38 14.56 60.96 17.96 92.02 1.55 15.41 4.1 30.7 5.44 46.13 0.86 9.59 1.62 19.21 2.69 28.79 0.87 7.75 2.81 15.37 3.16 23.19 0.27 5.76 0.64 11.77 3.54 16.91 4.3 7.8 11.4 13.51 18.54 18.6 5.15 3.51 10.86 7.26 17.34 7.17 5.74-0.27 9.73-4.83 12.86-9.14 10.83-14.96 28.75-25.13 47.36-25.29-17.39 1.3201-34.07 10.44-44.32 24.57-3.26 4.2999-6.4 9.27-11.73 11.18-6.01 2.25-12.53-0.09-17.83-3.08-6.0199-3.52-11.67-7.6799-16.81-12.37-2.16-1.8-4.96-2.52-7.54-3.4399-10.6-3.28-21.74-4.8401-32.82-4.63 10.53-5.16 23.36-3.49 33.9 0.8899-1.8-3.33-3.63-6.71-4.36-10.45-1.4-6.75-0.94-13.72-2.35-20.47-2.77-14.33-3.62-28.93-5.11-43.43-1.13-12.1-2.84-24.13-4.22-36.19-2.57-24.06-4.67-48.25-9.66-71.96-3.57-16.98-9.14-33.59-17.23-48.96-4.7502-10.52-10.01-20.8-16.33-30.44z"/>
 <path d="m853.89 825.6c2.16-0.83 4.55-0.27 6.47 0.9-2.69 0.49-6.11 0.07-7.88 2.59-1.96 2.6299-2.29 7.08 0.51 9.27 3.23 2.06 8.63 1.16 10.19-2.63 0.58-2.13 0.39-4.37 0.48-6.54 2.21 2.67 3.62 6.47 1.91 9.79-2.17 5.65-10.71 7.22-14.54 2.43-4.39-4.61-2.48-12.81 2.86-15.81z" fill="#797471"/>
 <path d="m852.48 829.09c1.77-2.52 5.19-2.1 7.88-2.59 1.06 0.93 2.16 1.81 3.3 2.69-0.09 2.17 0.1 4.41-0.48 6.54-1.56 3.79-6.96 4.69-10.19 2.63-2.7999-2.19-2.47-6.64-0.51-9.27z" fill="#BBB7B6"/>
 <path d="m670.83 889.94c2.14-8.26 2.51-16.83 3.88-25.21 2.67 10.94 2.42 22.4 0.31 33.42-0.71 3.75-1.86 7.94-5.25 10.15-1.62 1.34-4.63 1.99-4.24 4.65 0.15 9.96 5.11 19.12 11.42 26.56 2.64 3.27 5.89 5.99 8.53 9.27-11.94-5.53-22.34-15.81-25.5-28.86-0.68-3.78-1.5-7.87-0.13-11.58 1.19-3 4.45-4.01 6.84-5.78 2.66-3.65 2.95-8.39 4.14-12.62z"/>
 <path d="m1327.9 1046.4c-2.0399-18.84 1.79-38.47 11.62-54.75-2.9901 9.41-6.52 18.71-8.26 28.48-1.9601 8.6401-2.26 17.51-3.3601 26.27z"/>
 <path d="m1139.6 1007c7.2301 8.5099 9.3701 20.06 9.6001 30.93-0.11 7.02 0.47 14.32-2.02 21.03-1.65 4.3101-4.49 8.51-8.92 10.31 5.15-4.3101 8.17-10.68 8.4501-17.38 0.4399-11.66 0.73-23.65-2.8201-34.91-1.0201-3.5-2.9001-6.64-4.2901-9.98z"/>
 <path d="m953.22 1033.8c2.34-6.34 5.15-12.54 8.33-18.51-1.45 7.07-5.05 13.46-6.77 20.46-3.92 13.33-0.51 28.2 7.74 39.21 1.96 2.66 4.44 4.9 6.46 7.53-15.56-10.01-21.9-31.46-15.76-48.69z"/>
 <path d="m1277 1117.9c-0.89-17.88 2.09-36.31 10.33-52.32-5.4399 25.51-8.8199 52.05-3.83 77.93-4.39-7.76-5.79-16.84-6.5-25.61z"/>
 <path d="m812.77 1114.1c-0.44-4.83-1.18-9.8 0.16-14.55 1.48 18.39 8.92 35.8 18.31 51.49 8.23 13.68 18.89 25.8 31.3 35.82-14.53-6.9501-25.87-19.14-34.48-32.51-7.7399-12.19-13.4-25.89-15.29-40.25z"/>
 <path d="m818.63 1166c-21.88-5.35-36.24-30.53-30.61-52.17-1.52 17.28 6.1 35.08 19.87 45.68 3.2799 2.6199 7.05 4.4999 10.74 6.4899z"/>
 <path d="m1204.8 1131.3c1.84-1.17 3.41-2.9501 5.5699-3.53l0.66 1.3199c-6.24 5.4301-10.08 12.84-15.29 19.14-5.9601 7.36-12.53 14.2-18.81 21.29-12.71 13.74-28.84 23.58-44.7 33.21-15.44 9.28-31.9 17.71-49.89 20.48-15.89 2.5-32.05 1.3-47.94-0.5-20.3-2.34-40.68-5.71-59.89-12.89-18.78-7.4099-34.14-20.9-50.17-32.77-6.22-4.3401-11.67-9.67-17.94-13.93-2.58-1.88-5.79-2.36-8.72-3.4-3.5-1.76-6.78-3.9-10.17-5.83 0.36-0.35 1.09-1.05 1.46-1.4 11.36 5.27 24.09 5.8 36.35 7.21 8.1 0.67 16.05 2.41 24.12 3.37 12.8 1.6001 25.73 2.3501 38.62 1.75 14.41-0.98 29.18-4.25 43.45-0.3999 8.52 2.1599 15.83 8.45 24.93 8.34 10.75-0.0601 19.88-6.5 28.41-12.26 20.23-1.74 40.48-3.48 60.75-4.66 21.63-2.1602 41.68-12.09 59.2-24.54m-48.89 25.02c-8.99 2.1001-18.26 1.7101-27.38 2.65-14.25 1.17-28.52 2.15-42.76 3.46-8.7999 5.9301-18.28 12.43-29.36 12.34-9.54 0.25-17.22-6.3101-26.13-8.5701-14.07-3.5699-28.52-0.1699-42.7 0.66-15.77 0.63-31.58-0.5599-47.15-3.02-10.26-1.77-20.64-2.85-31.02-3.5599 29.26 5.7799 57.73 14.89 86.98 20.73 21.03 4.27 42.58 7.0599 64.06 5.4299 21.13-1.51 41.82-6.2899 62.38-11.16 12.95-3.0901 26-6.25 38.18-11.77 9.3-4.38 18.4-9.24 26.86-15.1 4.9701-3.63 10.35-7.05 13.82-12.27-14.06 9.0799-29.28 16.8-45.78 20.18m9.35 7.5c-15.73 7.7201-33 11.3-49.92 15.32-22.93 5.39-46.28 10.01-69.93 9.7999-46.69-0.8999-90.96-17.33-136.23-26.78 5.92 5.1499 12.05 10.05 18.39 14.68 14.81 11.07 29.15 23.35 46.4 30.53 17.94 6.97 37.02 10.39 56.05 12.79 17.35 2.0499 35.02 3.85 52.39 0.97 17.15-2.75 32.86-10.7 47.62-19.52 16.93-10.23 34.22-20.71 47.38-35.75 5.7001-6.5599 11.92-12.69 17.09-19.69-9.08 6.9099-18.98 12.7-29.24 17.65z"/>
 <path d="m381.19 1381.7c8.26-7.75 15.82-16.22 24.33-23.69-11.87 14.39-24.61 28.06-37.89 41.16-12.28 12.19-25.68 23.24-39.87 33.13-7.86 5.5699-15.74 11.32-22.01 18.7-5.86 6.91-9.54 15.89-9.27 25.02 0.26 7.83 4.87 15.15 11.51 19.2 10.17 6.36 22.41 7.53 33.44 11.77 6.86 2.33 13.37 6.2 17.82 12.03-5.35-4.9601-11.76-8.72-18.85-10.52-11.33-3.37-23.54-4.37-33.97-10.31-7.97-4.3999-13.78-12.95-13.77-22.2-0.65-10.41 3.63-20.65 10.32-28.47 8.92-10.78 21.35-17.62 32.41-25.89 16.25-12.13 31.35-25.73 45.8-39.93z"/>
 <path d="m1157.4 1454.1c5.76-18.5 11.54-37.04 18.63-55.08-11.85 42.36-23.87 84.69-33.92 127.53-11.06 45.78-20.68 91.93-29.1 138.27l-0.5699-0.0699c5.21-45.72 14.04-90.96 24.52-135.74 6.24-25.12 12.77-50.18 20.44-74.91z"/>
 <path d="m371.41 1434.3c20.96 1.25 41.05 9.34 58.83 20.22 28.49 17.39 50.44 43.38 68.85 70.84 12.84 19.27 24.31 39.4 35.71 59.55 37.58 65.96 73.91 132.64 108.56 200.2 19.35 37.3 38.07 74.93 56.28 112.8 17.67 35.95 34.46 72.34 51.03 108.81 1.86 4.13 3.9 8.1901 5.54 12.43-9.19-17.9-17.54-36.26-26.69-54.2-62.73-128.5-129.08-255.25-199.17-379.89-17.86-31.48-35.12-63.7-58.78-91.31-14.16-16.61-30.73-31.34-49.67-42.28-15.47-8.9799-32.68-15.13-50.49-17.17z"/>
 <path d="m990.21 1435.2c9.55 0.1899 18.89 3.7799 26.5 9.49 11.66 8.61 19.81 21.12 31.74 29.43 3.0399 2.2001 7.2999 2.2001 10.52 0.36 6.26-3.5399 9.71-10.29 15.7-14.19 5.84-3.97 11.93-7.96 15.54-14.26-2.12 7.38-8.54 12.1-14.19 16.76-5.35 4.23-8.1699 10.94-14.04 14.62-4.67 3.4-11.37 3.5599-16.16 0.33-12.79-8.71-21.02-22.34-32.93-32.03-6.6-5.2701-14.53-8.5401-22.68-10.51z"/>
 <path d="m1726.2 1446.9c-16.17 71.18-30.28 142.86-40.8 215.11-5.74 39.35-10.6 78.82-14.78 118.37-0.4301 3.24-0.39 6.52-0.7101 9.79-0.6-5.67 0.03-11.36 0.3201-17.02 5.9-94.76 20.75-188.94 43.58-281.08 3.95-15.1 7.5799-30.33 12.39-45.17z"/>
 <path d="m1826.9 1463.3l0.48 0.13c-32.92 57.49-60.1 118.26-81.33 181.01-9.76 28.57-17.57 57.76-26.35 86.64-15.11 50.58-31.17 100.89-45.45 151.71-14.7 52.59-27.23 105.9-34.4 160.08-6.22 47.52-9.8799 95.62-22.25 142.09h-0.83c12.72-51.82 14.67-105.41 21.98-158.1 7-51.05 19.22-101.21 32.97-150.82 15.17-54.77 32.96-108.77 49.23-163.21 7.89-26.8 15.74-53.64 25.39-79.88 10.1-27.82 21.36-55.23 33.87-82.05 14.09-29.96 29.78-59.15 46.69-87.6z"/>
 <path d="m181.82 1489.1c0.78-1.26 1.55-2.5 2.33-3.7301 48.4 29.09 90.84 68.08 123.71 114.01 13.56 19.2 22.28 41.32 29.07 63.69 12.03 40.63 17.83 82.71 26.83 124.04 23.92 121.7 32.71 246.43 25.36 370.24-1.06-0.05-3.18-0.1501-4.23-0.2 7.53-127.55-2.04-256.07-27.77-381.23-8.75-41.39-14.6-83.58-28.21-123.77-6.41-18.53-14.5-36.69-26.21-52.51-32.38-44.41-73.68-82.35-120.88-110.54z"/>
 <path d="m481.46 1485.8c24.79 27.02 48.37 55.15 71.79 83.36 51.52 62.74 100.66 127.45 146.81 194.24 7.46 11.13 15.37 21.98 22.33 33.44-23.12-30.86-45.88-61.99-69.19-92.7-48.57-64.47-98.54-127.87-149.45-190.5-7.3601-9.34-15.17-18.32-22.29-27.84z"/>
 <path d="m191.17 1535.6c12.55-2.6801 26.13-2.48 38.05 2.6799 15.44 6.75 25.75 20.87 34.44 34.72 9.46 15.39 20.32 29.84 31.1 44.31 14.66 19.76 28.55 41.18 33.44 65.67-5.55-16.48-13.85-31.92-23.95-46.05-11.02-15.61-23.27-30.31-34.23-45.96-10.68-15.9-19.18-34.09-34.93-45.79-12.48-9.3699-28.86-10.8-43.92-9.5799z"/>
 <path d="m1874.6 1548.9c2.23-5.03 4.2899-10.15 6.73-15.08-9.27 26.98-20.91 53.12-33.13 78.89-38.08 78.45-86.85 151.91-145.84 216.21 5.4501-7.73 11.84-14.76 17.52-22.32 29.92-38.13 57.79-77.89 82.82-119.39 27.06-44.41 50.86-90.76 71.9-138.31z"/>
 <path d="m1280.7 1615.4c4.59-23.85 5.99-48.17 6.26-72.41 1.87 44.81-4.98 89.72-18.13 132.53-12.18 40.76-29.22 79.87-47.72 118.12-29.39 61.2-63.29 120.3-88.44 183.49-12.23 30.77-22.99 62.25-29.75 94.72-7.95 37.06-10.92 75.36-6.61 113.1h-0.47c-2.5701-19.86-3.63-39.96-2.51-59.96 1.74-35.82 9.42-71.1 19.99-105.28 9.54-30.45 21.66-60.03 34.92-89.03 28.74-63.24 64.06-123.3 91.51-187.15 18-41.13 33.13-83.81 40.95-128.13z"/>
 <path d="m835 1600.7c2.33 1.1599 5 0.0399 7.49 0.51 5.81 0.4199 11.2 3.75 14.21 8.75-1.26 0.6699-2.5 1.39-3.75 2.11-2.45-3.79-6.5-6.03-10.88-6.78 10.94 9.61 19.91 22.19 22.54 36.76 1.1 5.33-1.02 11.76-6.3 14.02-5.89 2.45-12.74 1.1799-18.29-1.5901-9.52-5.0399-17.7-13.71-19.98-24.48-1.87-9.1699 1.09-19.82 8.93-25.39 1.9299-1.4299 4.53-1.9299 6.03-3.9099m-11.1 26.27c1.05 9.1599 7.45 16.78 14.9 21.75 4.92 3.3099 11.21 5.5599 17.1 3.72 4.11-1.5701 5.43-6.5801 4.33-10.5-2.64-12.03-9.56-22.93-18.72-31.07-1.47 0.36-2.94 0.7001-4.39 1.0701-0.45-2.01-0.91-4-1.35-5.97-8.55 2.7899-12.91 12.5-11.87 21z"/>
 <path d="m777.18 1667.7c4.58-7.0699 14.24-11.11 22.18-7.3199-0.68 1.2-1.34 2.42-2 3.67-2.94-0.99-6.04-0.9301-9.06-0.4401 0.26 1.75 2.25 1.99 3.59 2.67-1.9 8.62 3.2401 16.43 5.1801 24.54 1.56 5.95 1.43 13.11-3.1 17.78-3.63 4.2201-10.6 5.8301-15.1 2.05-4.63-3.6801-5.28-10.04-5.78-15.51-0.71-9.2098-1.2601-19.39 4.0899-27.44m0.99 8.1501c-2.03 7.26-1.22 14.9-0.47 22.29 0.54 3.86 1.65 8.6801 5.75 10.22 5.3 1.0601 9.9399-4.35 10.22-9.3199 0.53-10.45-7.22-19.39-6.4-29.88-0.03-1.41 0.96-3.55-0.74-4.25-4.18 2.16-7.1499 6.4198-8.36 10.94z"/>
 <path d="m146.1 1746.9c-6.06-19.62-11.14-39.68-13.36-60.11 15.95 81.63 56.03 158.35 113.9 218.09 18.75 19.69 39.63 37.28 61.72 53.11 5.39 3.7201 10.98 7.17 16.19 11.14-32.78-18.16-62.25-42.05-88.06-69.15-40.95-43.5-72.34-96.09-90.39-153.08z"/>
 <path d="m1911.2 1711.8c-1.5 12.89-5.1899 25.43-8.3199 38.01-25.77 91.22-79.6 174.72-153.49 234.29 5.7-6.3199 12.42-11.66 18.24-17.87 70.24-69.31 120.42-158.53 143.57-254.43z"/>
 <path d="m1406.1 1773.9c-2.78 18.08-5.8 36.44-13.56 53.18-6.4199 13.82-15.53 26.17-25.11 37.94-56.22 70.31-113.19 140.01-171.06 208.97-10.02 11.69-19.61 23.76-29.98 35.12 7.71-10.62 16.14-20.72 24.16-31.11 56.95-72.18 114.89-143.56 173.56-214.34 9.58-11.34 18.85-23.11 25.61-36.39 6.83-13.2 10.73-27.66 13.71-42.14 0.86-3.76 1.36-7.61 2.67-11.23z"/>
 <path d="m976.43 1877.1c6.58-1.4399 13.49 0.97 18.45 5.35 5.12 4.5 9.53 10.3 10.81 17.14 2.13 12.01-2.27 25.18-11.61 33.13-8.34 7.28-22.34 7.92-30.36-0.15-12.76-13.44-11.85-37.08 1.69-49.66 3.11-2.8201 6.89-4.9601 11.02-5.8101m-0.5 4.55c-4 1.1899-7.35 3.9199-10 7.0599-9.19 11.15-9.39 28.68-0.05 39.81 4.74 5.6899 13.37 7.0399 20.03 4.1699 10.72-4.86 16.56-17.29 16.01-28.69-0.15-6.63-3.82-12.54-8.52-16.95-4.3899-4.57-11.2-7.4999-17.47-5.4z"/>
 <path d="m1875.9 1902.6c5.34-8.47 10.09-17.3 15.53-25.69-9.5901 19.89-20.58 39.11-31.79 58.13-40.55 68.03-88.2 131.94-142.69 189.45-0.45 0.4399-1.35 1.3101-1.7999 1.75 5.26-7.45 11.68-14.02 17.27-21.21 52.71-63.84 100.76-131.52 143.48-202.43z"/>
 <path d="m215.35 1923c12.06 11.42 24.72 22.23 38.36 31.75 17.6 12.41 35.69 24.18 52.59 37.56 15.3 12.67 29.56 27.07 39.68 44.29 8.99 14.82 14.29 32.01 13.87 49.43-1.28-6.3201-1.6-12.83-3.57-19-5.44-19.43-17.17-36.44-30.81-51.05-33.03-35.28-79.63-55.02-110.12-92.98z"/>
 <path d="m113.58 1941.9c0.22 42.89 9.39 85.76 27.4 124.73 9 19.34 19.92 37.81 32.78 54.84 1.64 2.1299 3.36 4.23 4.77 6.54-12.08-11.93-22.02-25.88-30.89-40.32-20.63-34.66-32.92-74.35-34.86-114.67-0.67-10.37-0.38-20.82 0.8-31.12z"/>
</svg>
